<?xml version="1.0" encoding="utf-8"?>
<!-- Generator: Adobe Illustrator 16.2.0, SVG Export Plug-In . SVG Version: 6.00 Build 0)  -->
<!DOCTYPE svg PUBLIC "-//W3C//DTD SVG 1.1//EN" "http://www.w3.org/Graphics/SVG/1.1/DTD/svg11.dtd">
<svg version="1.1" id="Layer_1" xmlns="http://www.w3.org/2000/svg" xmlns:xlink="http://www.w3.org/1999/xlink" x="0px" y="0px"
	 width="122.927px" height="125px" viewBox="0 0 122.927 125" enable-background="new 0 0 122.927 125" xml:space="preserve">
<g>
	<path fill="none" stroke="#8E9092" stroke-width="4.252" stroke-miterlimit="22.9256" d="M13.553,6.126h96.323
		c4.634,0,8.426,3.792,8.426,8.426v96.323c0,4.635-3.792,8.426-8.426,8.426H13.553c-4.635,0-8.427-3.791-8.427-8.426V14.552
		C5.126,9.918,8.918,6.126,13.553,6.126L13.553,6.126z"/>
</g>
<g>
	<path fill="#656665" d="M48.419,43.811c4.473-0.305,8.971-0.029,13.398,0.73c7.047,1.275,13.579,4.705,19.976,8.149
		c2.243,1.178,4.306,2.768,6.568,3.895c3.312,0.509,6.669,0.638,9.961,1.344c3.61,0.769,7.291,1.602,10.578,3.544
		c1.24,0.767,2.511,1.66,3.177,3.149c0.265,1.314,0.041,2.729,0.479,4.01c0.634,1.804,0.8,3.802,0.331,5.681
		c-0.255,1.285-0.703,2.875,0.145,4.014c-2.115,2.099-5.068,1.86-7.675,2.133c-0.098-2.751-0.151-5.684-1.601-8.03
		c-2.25-4.345-7.094-5.937-11.262-5.093c-2.986,0.489-5.774,2.661-7.058,5.806c-1.133,2.19-1.008,4.837-1.15,7.28
		c-14.6,0.19-29.191-0.294-43.785-0.535c-0.19-1.938-0.077-3.97-0.722-5.813c-1.039-2.916-3.232-5.192-5.819-6.256
		c-3.832-1.322-8.499-0.859-11.464,2.461c-1.919,1.903-2.57,4.775-3.115,7.49c-2.246-0.256-4.701-0.738-6.368-2.642
		c-0.846-0.84-1.145-2.188-1.014-3.428c0.145-0.951,0.98-1.367,1.604-1.866c-0.146-4.457-0.015-8.987,1.121-13.286
		c0.423-1.533,1.569-2.594,2.57-3.648c1.695-1.677,3.514-3.184,5.318-4.708c-0.496-0.443-1.001-0.869-1.486-1.324
		C30.186,45.471,39.277,44.251,48.419,43.811 M29.773,51.334c-1.226,0.494-2.455,1.008-3.584,1.75
		c2.63,1.757,5.636,2.709,8.667,2.948c6.313,0.396,12.623,0.879,18.938,1.264c-0.344-3.559-0.536-7.137-0.853-10.701
		C45.071,46.792,37.175,48.219,29.773,51.334 M55.919,46.588c0.563,3.634,1.257,7.241,1.872,10.866
		c3.021,0.513,6.088,0.475,9.128,0.737c5.346,0.287,10.677,0.93,16.026,1.037C75.641,51.58,65.898,46.714,55.919,46.588
		 M28.731,68.143c4.276-0.753,8.618,2.709,9.754,7.399c1.315,4.727-1.289,10.028-5.157,11.954
		c-3.384,1.848-7.649,0.548-10.034-2.671c-2.002-2.487-2.901-6.243-1.909-9.48C22.385,71.625,25.363,68.733,28.731,68.143
		 M28.935,71.289c-1.159,0.134-2.218,0.75-3.136,1.536c-2.229,2.249-2.675,6.355-1.138,9.228c1.889,3.596,6.716,4.085,9.406,1.417
		c1.985-2.084,2.511-5.615,1.39-8.381C34.415,72.29,31.512,70.769,28.935,71.289 M93.63,68.143c4.276-0.753,8.618,2.709,9.754,7.399
		c1.315,4.727-1.289,10.028-5.157,11.954c-3.384,1.848-7.649,0.548-10.034-2.671c-2.002-2.487-2.9-6.243-1.908-9.48
		C87.283,71.625,90.262,68.733,93.63,68.143 M93.833,71.289c-1.159,0.134-2.22,0.75-3.136,1.536
		c-2.229,2.249-2.675,6.355-1.139,9.228c1.89,3.596,6.717,4.085,9.406,1.417c1.985-2.084,2.511-5.615,1.39-8.381
		C99.313,72.29,96.41,70.769,93.833,71.289L93.833,71.289z"/>
</g>
</svg>
