<?xml version="1.0" encoding="utf-8"?>
<!-- Generator: Adobe Illustrator 16.2.0, SVG Export Plug-In . SVG Version: 6.00 Build 0)  -->
<!DOCTYPE svg PUBLIC "-//W3C//DTD SVG 1.1//EN" "http://www.w3.org/Graphics/SVG/1.1/DTD/svg11.dtd">
<svg version="1.1" id="Layer_1" xmlns="http://www.w3.org/2000/svg" xmlns:xlink="http://www.w3.org/1999/xlink" x="0px" y="0px"
	 width="122.927px" height="125px" viewBox="0 0 122.927 125" enable-background="new 0 0 122.927 125" xml:space="preserve">
<g>
	<path fill="none" stroke="#8E9092" stroke-width="4.252" stroke-miterlimit="22.9256" d="M13.553,6.126h96.323
		c4.634,0,8.426,3.792,8.426,8.426v96.323c0,4.635-3.792,8.426-8.426,8.426H13.553c-4.635,0-8.427-3.791-8.427-8.426V14.552
		C5.126,9.918,8.918,6.126,13.553,6.126L13.553,6.126z"/>
</g>
<g>
	<path fill="#656665" d="M60.662,19.268c2.586-0.901,4.071,1.229,5.488,2.644c5.889,0.254,11.789,0.295,17.69,0.342
		c3.051,12.204,6.187,24.396,9.318,36.584c-1.641-0.28-3.304-0.804-4.995-0.591c-2.225,0.497-4.025,1.897-6.026,2.83
		c-2.248-1-4.25-2.722-6.79-3.007c-2.546,0.373-4.357,2.364-6.853,2.856c-2.81-0.555-5.437-3.894-8.4-2.188
		c-1.646,0.663-3.12,1.695-4.852,2.183c-2.621-0.534-4.599-2.67-7.363-2.784c-2.362,0.384-4.261,1.897-6.365,2.841
		c-1.978-0.901-3.768-2.239-5.946-2.722c-1.697-0.218-3.366,0.296-5.012,0.57c3.165-12.182,6.285-24.375,9.33-36.579
		c5.843-0.042,11.687-0.062,17.535-0.119C58.408,21.098,59.303,19.921,60.662,19.268 M59.882,62.135
		c0.706-0.332,1.417-0.664,2.122-0.99c0.607,0.342,1.216,0.689,1.818,1.037c0.017,1.404,0.045,4.225,0.063,5.63
		c-1.01,0.005-3.022,0.005-4.031,0.005C59.859,66.396,59.876,63.556,59.882,62.135 M56.27,70.771
		c3.596,0.218,7.306-0.306,10.85,0.404c2.528,1.316,3.475,4.458,2.89,6.926c-0.98,5.309-2.867,10.44-4.317,15.655
		c-2.655-0.016-5.299-0.021-7.948-0.046c-1.146-5.454-3.017-10.762-3.956-16.247C53.425,75.007,54.888,72.767,56.27,70.771
		 M54.916,96.967c4.731-0.063,9.479-0.136,14.204,0.124c-0.098,0.912-0.194,1.83-0.304,2.747c-4.73,0.058-9.479,0.135-14.204-0.124
		C54.71,98.796,54.808,97.884,54.916,96.967 M50.467,103.399c7.558-0.44,15.293-0.923,22.822-0.042
		c3.344,0.519,3.005,4.096,3.498,6.419c-9.989,0.046-19.979,0.052-29.962-0.006C47.203,107.608,47.123,103.721,50.467,103.399
		L50.467,103.399z"/>
</g>
</svg>
