<?xml version="1.0" encoding="utf-8"?>
<!-- Generator: Adobe Illustrator 16.2.0, SVG Export Plug-In . SVG Version: 6.00 Build 0)  -->
<!DOCTYPE svg PUBLIC "-//W3C//DTD SVG 1.1//EN" "http://www.w3.org/Graphics/SVG/1.1/DTD/svg11.dtd">
<svg version="1.1" id="Layer_1" xmlns="http://www.w3.org/2000/svg" xmlns:xlink="http://www.w3.org/1999/xlink" x="0px" y="0px"
	 width="122.927px" height="125px" viewBox="0 0 122.927 125" enable-background="new 0 0 122.927 125" xml:space="preserve">
<g>
	<path fill="none" stroke="#8E9092" stroke-width="4.252" stroke-miterlimit="22.9256" d="M13.553,6.126h96.323
		c4.634,0,8.426,3.792,8.426,8.426v96.323c0,4.635-3.792,8.426-8.426,8.426H13.553c-4.635,0-8.427-3.791-8.427-8.426V14.552
		C5.126,9.918,8.918,6.126,13.553,6.126L13.553,6.126z"/>
</g>
<g>
	<path fill="#666766" d="M73.923,18.395c11.956-3.537,25.85-3.763,36.567,3.413c-0.441,7.542-4.333,14.238-7.478,20.919
		c-1.222,3.547-5.447,3.671-8.462,4.419c-4.797,0.673-9.765,0.543-14.476-0.614c-1.862-0.565-4.08-1.195-4.877-3.198
		c-2.923-5.566-5.555-11.347-7.229-17.425C65.95,21.792,71.011,19.644,73.923,18.395 M17.739,29.489
		c5.98-7.59,15.901-12.516,25.656-11.401c6.906,0.42,13.684,4.344,16.725,10.696c4.598,9.759,3.074,21.393-2.19,30.576
		c11.1-0.651,23.379,1.933,31.125,10.47c5.038,5.05,5.087,14.094-0.064,19.095c-8.037,9.193-21.511,11.067-33.031,10.185
		C46.593,97.968,36.16,94.2,31.563,85.339c-2.276-3.967-1.437-8.721,0.243-12.73c-7.198-1.319-13.899-6.17-16.177-13.28
		C12.345,49.762,11.339,38.064,17.739,29.489 M42.771,22.685c2.799,1.884,5.69,3.817,7.574,6.697
		c2.541,3.935,3.499,8.764,3.251,13.398c0.188,13.63-15.794,24.11-28.314,19.212c-2.746-1.232-5.05-3.219-7.354-5.104
		c2.186,5.771,6.637,11.418,13.124,12.215c3.429,0.474,5.464-2.59,8.155-3.967c2.046-0.625,4.253-0.458,6.314-1.034
		c6.357-2.524,11.563-7.988,13.119-14.755c2.416-9.006,0.898-20.66-7.726-25.893C48.541,21.56,45.5,22.287,42.771,22.685
		 M37.205,24.946c-2.02,0.313-3.844,1.324-5.771,1.954c-2.104,0.937-4.672,0.663-6.465,2.293c-5.668,5.27-8.941,13.49-6.896,21.166
		c1.281,6.589,8.214,11.482,14.868,10.465c10.578-0.705,20.17-11.083,18.168-21.877C50.57,31.928,44.945,23.891,37.205,24.946
		 M57.645,64.598c-6.842,0.894-14.604,3.333-18.179,9.781c-1.782,3.192-0.361,7.203,1.879,9.771
		c4.887,5.308,12.327,7.213,19.287,7.547c7.617-0.313,16.429-1.658,21.468-8.042c3.144-3.149,2.611-8.414-0.069-11.665
		C75.903,65.438,66.192,63.86,57.645,64.598 M75.715,47.135c5.652,1.05,11.456,2.53,17.237,1.664c3.09-0.237,6.104-0.98,9.098-1.739
		c-0.027,6.638,0.382,13.291-0.087,19.912c-0.969,3.913-5.561,4.641-8.898,5.114c-3.913-6.32-10.421-10.336-17.344-12.64
		C75.715,55.339,75.721,51.237,75.715,47.135 M30.051,87.202c2.992,2.804,5.453,6.255,9.043,8.354
		c8.484,5.496,19.024,6.993,28.924,5.814c4.57,0.124,9.512,2.6,13.679-0.355c4.339-1.981,5.162-6.982,7.956-10.373
		c0.952-1.298,2.077-2.455,3.283-3.51c-3.315,12.876-15.794,22.372-29.079,22.318C49.225,111.231,33.674,101.763,30.051,87.202
		L30.051,87.202z"/>
</g>
</svg>
