<?xml version="1.0" encoding="utf-8"?>
<!-- Generator: Adobe Illustrator 16.2.0, SVG Export Plug-In . SVG Version: 6.00 Build 0)  -->
<!DOCTYPE svg PUBLIC "-//W3C//DTD SVG 1.1//EN" "http://www.w3.org/Graphics/SVG/1.1/DTD/svg11.dtd">
<svg version="1.1" id="Layer_1" xmlns="http://www.w3.org/2000/svg" xmlns:xlink="http://www.w3.org/1999/xlink" x="0px" y="0px"
	 width="122.927px" height="125px" viewBox="0 0 122.927 125" enable-background="new 0 0 122.927 125" xml:space="preserve">
<g>
	<path fill="none" stroke="#8E9092" stroke-width="4.252" stroke-miterlimit="22.9256" d="M13.553,6.126h96.323
		c4.634,0,8.426,3.792,8.426,8.426v96.323c0,4.635-3.792,8.426-8.426,8.426H13.553c-4.635,0-8.427-3.791-8.427-8.426V14.552
		C5.126,9.918,8.918,6.126,13.553,6.126L13.553,6.126z"/>
</g>
<g>
	<path fill="#656665" d="M30.892,37.922c5.452-0.699,10.839,1.029,15.923,2.804c5.631,2.04,10.704,5.354,16.396,7.256
		c5.867,2.106,12.192,1.757,18.31,2.328c8.46,0.771,17.019,1.557,25.14,4.201c-2.229,0.869-4.571,1.724-6.328,3.422
		c-3.558,3.357-5.565,7.926-7.293,12.414c-20.611,0.019-41.227,0.167-61.835-0.076c-0.749-6.726-2.728-13.785-7.62-18.709
		c-2.229-2.135-5.438-2.325-8.304-2.848C19.158,43.636,24.352,38.937,30.892,37.922 M9.76,53.921
		c3.332-2.673,8.595-2.019,11.46,1.091c4.554,4.87,6.114,11.792,6.179,18.284c22.987-0.015,45.978,0.032,68.968-0.026
		c1.618-4.183,3.077-8.634,6.292-11.918c1.826-2.153,4.608-3.83,7.533-3.267c1.854,0.43,2.924,2.71,1.985,4.419
		c-2.484,3.299-6.594,5.325-8.15,9.329c-1.67,4.03-2.081,8.409-2.586,12.701c-1.063,0.019-2.092,0.051-3.146,0.069
		c-0.51,1.44-1.029,2.877-1.517,4.328c-1.434-0.004-2.866-0.008-4.296-0.011c-0.517-1.447-1.025-2.889-1.563-4.325
		c-18.869-0.036-37.739-0.051-56.608,0.008c-0.506,1.443-1.025,2.888-1.535,4.335c-1.411-0.015-2.818-0.029-4.229-0.047
		c-0.495-1.444-1.066-2.855-1.622-4.273c-1.059-0.037-2.11-0.048-3.165-0.073c-1.022-5.917-1.88-12.097-4.888-17.393
		c-1.607-3.267-5.521-4.077-7.831-6.674C9.258,58.948,8.312,55.933,9.76,53.921L9.76,53.921z"/>
</g>
</svg>
