<?xml version="1.0" encoding="utf-8"?>
<!-- Generator: Adobe Illustrator 16.2.0, SVG Export Plug-In . SVG Version: 6.00 Build 0)  -->
<!DOCTYPE svg PUBLIC "-//W3C//DTD SVG 1.1//EN" "http://www.w3.org/Graphics/SVG/1.1/DTD/svg11.dtd">
<svg version="1.1" id="Layer_1" xmlns="http://www.w3.org/2000/svg" xmlns:xlink="http://www.w3.org/1999/xlink" x="0px" y="0px"
	 width="122.927px" height="125px" viewBox="0 0 122.927 125" enable-background="new 0 0 122.927 125" xml:space="preserve">
<g>
	<path fill="none" stroke="#8E9092" stroke-width="4.252" stroke-miterlimit="22.9256" d="M13.553,6.126h96.323
		c4.634,0,8.426,3.792,8.426,8.426v96.323c0,4.635-3.792,8.426-8.426,8.426H13.553c-4.635,0-8.427-3.791-8.427-8.426V14.552
		C5.126,9.918,8.918,6.126,13.553,6.126L13.553,6.126z"/>
</g>
<g>
	<path fill="#666766" d="M30.572,15.934c4.894-1.114,10.04-0.898,14.909,0.233c5.05,1.161,9.505,4.34,12.546,8.5
		c4.693,6.172,6.916,13.668,10.056,20.649c2.476,5.162,5.186,10.389,9.285,14.47c2.857,2.954,6.99,3.979,10.876,4.773
		c3.528,0.709,7.205,0.454,10.672,1.508c3.734,1.017,6.828,3.714,8.883,6.931c2.559,4.34,3.578,9.38,4.102,14.334v9.854
		c-0.29,2.667-0.525,5.346-1.01,7.983c-0.531,2.552-2.825,4.701-5.442,4.94c-3.187,0.255-6.386,0.081-9.576,0.109
		c-25.43,0.006-50.858-0.013-76.286,0.012c-1.357-0.071-2.891,0.043-4.081-0.751c-1.211-0.699-1.939-1.942-2.479-3.185V35
		c0.995-4.673,2.837-9.335,6.212-12.807C22.24,18.989,26.279,16.809,30.572,15.934 M17.277,85.883
		c-0.006,6.373-0.008,12.744,0.004,19.116c29.286,0.01,58.571,0.008,87.859,0.002c0.006-6.37,0.006-12.739-0.002-19.11
		c-2.509-0.012-5.018-0.018-7.525,0c-0.018,4.763,0.013,9.524-0.008,14.289c-1.93-0.004-3.856-0.002-5.786,0.001
		c-0.018-4.766,0.012-9.529-0.004-14.296c-1.415,0.004-2.831,0.006-4.244-0.002c-0.018,4.765,0.014,9.528-0.006,14.295
		c-1.865,0-3.729,0-5.595,0.002c-0.018-4.765,0.012-9.53-0.004-14.295c-1.481,0.006-2.958,0.006-4.438-0.004
		c-0.018,4.767,0.014,9.53-0.006,14.297c-1.865,0-3.729,0-5.595,0.002c-0.018-4.765,0.012-9.528-0.004-14.295
		c-1.415,0.004-2.831,0.006-4.244-0.002c-0.018,4.765,0.014,9.528-0.006,14.295c-1.866,0-3.729,0-5.595,0.002
		c-0.018-4.765,0.012-9.53-0.004-14.295c-1.479,0.006-2.958,0.006-4.438-0.004c-0.018,4.767,0.014,9.53-0.006,14.297
		c-1.865,0-3.729,0-5.595,0.002c-0.018-4.765,0.012-9.528-0.004-14.295c-1.415,0.004-2.829,0.006-4.244-0.002
		c-0.018,4.765,0.014,9.53-0.008,14.297c-1.93-0.004-3.856-0.002-5.786,0.001c-0.018-4.766,0.012-9.529-0.004-14.296
		c-1.415,0.004-2.829,0.006-4.244-0.002c-0.018,4.765,0.014,9.528-0.006,14.295c-1.865,0-3.729,0-5.595,0.002
		c-0.018-4.765,0.012-9.528-0.004-14.295c-1.415,0.004-2.829,0.006-4.244-0.002c-0.018,4.765,0.013,9.53-0.008,14.297
		c-1.928-0.004-3.857-0.002-5.786,0.001c-0.017-4.766,0.014-9.531-0.007-14.298C20.49,85.891,18.883,85.889,17.277,85.883
		L17.277,85.883z"/>
</g>
</svg>
