<?xml version="1.0" encoding="utf-8"?>
<!-- Generator: Adobe Illustrator 16.2.0, SVG Export Plug-In . SVG Version: 6.00 Build 0)  -->
<!DOCTYPE svg PUBLIC "-//W3C//DTD SVG 1.1//EN" "http://www.w3.org/Graphics/SVG/1.1/DTD/svg11.dtd">
<svg version="1.1" id="Layer_1" xmlns="http://www.w3.org/2000/svg" xmlns:xlink="http://www.w3.org/1999/xlink" x="0px" y="0px"
	 width="122.927px" height="125px" viewBox="0 0 122.927 125" enable-background="new 0 0 122.927 125" xml:space="preserve">
<g>
	<path fill="none" stroke="#8E9092" stroke-width="4.252" stroke-miterlimit="22.9256" d="M13.553,6.126h96.323
		c4.634,0,8.426,3.792,8.426,8.426v96.323c0,4.635-3.792,8.426-8.426,8.426H13.553c-4.635,0-8.427-3.791-8.427-8.426V14.552
		C5.126,9.918,8.918,6.126,13.553,6.126L13.553,6.126z"/>
</g>
<g>
	<path fill="#666766" d="M58.693,12.563h2.739c1.817,0.392,3.671,0.88,5.224,1.947c1.671,1.065,2.98,2.573,4.33,3.999
		c12,12.451,23.976,24.925,35.962,37.389c1.476,1.513,2.532,3.409,3.052,5.457v2.322c-0.596,2.405-2.554,4.467-5.038,4.886
		c-2.449,0.307-4.93,0.102-7.39,0.15c-0.007,9.988,0.005,19.977-0.002,29.964c0.009,2.695-0.665,5.404-2.033,7.731
		c-1.298,2.155-3.188,4.005-5.495,5.046c-1.108,0.525-2.325,0.752-3.519,0.982H69.385c0.003-11.32-0.008-22.641,0.008-33.959
		c-0.056-0.771,0.052-1.586-0.243-2.317c-0.335-0.794-1.298-1.103-2.098-1.098c-2.773-0.088-5.547,0.008-8.32-0.022
		c-2.059,0.022-4.122-0.09-6.178,0.053c-0.597,0.13-1.275,0.395-1.546,0.987c-0.293,0.839-0.259,1.742-0.282,2.619
		c0.035,11.246,0.007,22.491,0.016,33.737H33.704c-1.729-0.235-3.448-0.725-4.924-1.679c-2.538-1.583-4.411-4.125-5.39-6.932
		c-0.721-1.961-0.832-4.08-0.843-6.147c0.015-9.656,0.007-19.311,0.007-28.966c-2.035-0.008-4.07,0.038-6.105-0.008
		c-1.94-0.018-3.886-0.91-5.081-2.456c-0.556-0.738-0.932-1.592-1.242-2.457v-2.438c0.243-0.82,0.495-1.645,0.889-2.407
		c1.167-2.438,3.318-4.148,5.103-6.104c9.721-10.106,19.428-20.226,29.159-30.32c2.215-2.225,4.288-4.59,6.561-6.756
		C53.701,13.975,56.193,13.045,58.693,12.563 M55.515,21.112c-11.227,11.669-22.446,23.344-33.69,34.997
		c-1.301,1.434-2.728,2.75-3.984,4.225c-0.455,0.618-1.103,1.333-0.896,2.172c3.978-0.008,7.956-0.005,11.935-0.005
		c0.003,12.098-0.001,24.193,0,36.29c-0.012,1.644,0.408,3.306,1.284,4.704c0.938,1.416,2.493,2.628,4.263,2.602
		c3.329,0.054,6.66-0.004,9.989,0.017c-0.002-8.472,0.005-16.942-0.004-25.412c-0.014-2.322,0.185-4.683,0.999-6.875
		c0.593-1.578,1.651-3.016,3.118-3.879c1.598-0.937,3.483-1.282,5.318-1.237c3.699,0.005,7.398,0.014,11.098-0.002
		c1.631,0,3.3-0.011,4.875,0.472c1.99,0.535,3.667,2.018,4.536,3.875c1.03,2.165,1.353,4.603,1.354,6.979
		c0.002,8.693-0.002,17.386,0,26.079c3.294-0.019,6.587,0.034,9.88-0.011c1.654,0.048,3.151-0.922,4.09-2.224
		c1.115-1.519,1.636-3.437,1.574-5.311C91.236,86.546,91.25,74.523,91.246,62.5c3.979-0.006,7.956,0.01,11.935-0.004
		c-0.032-0.454-0.003-0.936-0.287-1.321c-1.169-1.787-2.856-3.139-4.269-4.719c-7.086-7.377-14.188-14.739-21.279-22.113
		c-4.286-4.408-8.497-8.887-12.809-13.27c-1.081-1.16-2.5-2.158-4.146-2.176C58.507,18.753,56.749,19.761,55.515,21.112
		 M58.78,30.602c4.963-0.555,10.11,2.018,12.707,6.27c2.105,3.311,2.626,7.574,1.417,11.303c-1.491,4.716-5.754,8.454-10.668,9.163
		c-3.602,0.633-7.426-0.325-10.313-2.562c-2.09-1.523-3.617-3.729-4.544-6.127c-0.774-2.013-0.85-4.203-0.714-6.331
		c0.568-4.44,3.476-8.5,7.524-10.428C55.637,31.218,57.184,30.725,58.78,30.602 M59.446,36.815c-1.615,0.157-3.205,0.789-4.354,1.96
		c-1.968,1.761-2.721,4.665-2.011,7.19c0.801,3.177,4.032,5.552,7.311,5.305c2.441-0.07,4.796-1.513,5.974-3.653
		c1.578-2.663,1.138-6.369-1.05-8.568C63.835,37.479,61.604,36.572,59.446,36.815L59.446,36.815z"/>
</g>
</svg>
