<?xml version="1.0" encoding="utf-8"?>
<!-- Generator: Adobe Illustrator 16.2.0, SVG Export Plug-In . SVG Version: 6.00 Build 0)  -->
<!DOCTYPE svg PUBLIC "-//W3C//DTD SVG 1.1//EN" "http://www.w3.org/Graphics/SVG/1.1/DTD/svg11.dtd">
<svg version="1.1" id="Layer_1" xmlns="http://www.w3.org/2000/svg" xmlns:xlink="http://www.w3.org/1999/xlink" x="0px" y="0px"
	 width="122.927px" height="125px" viewBox="0 0 122.927 125" enable-background="new 0 0 122.927 125" xml:space="preserve">
<g>
	<path fill="none" stroke="#8E9092" stroke-width="4.252" stroke-miterlimit="22.9256" d="M13.553,6.126h96.323
		c4.634,0,8.426,3.792,8.426,8.426v96.323c0,4.635-3.792,8.426-8.426,8.426H13.553c-4.635,0-8.427-3.791-8.427-8.426V14.552
		C5.126,9.918,8.918,6.126,13.553,6.126L13.553,6.126z"/>
</g>
<g>
	<path fill="#656665" d="M55.193,16.116c0.219-0.796,1.132-0.792,1.802-0.838c4.014,0.004,8.027,0.004,12.041,0.056
		c1.271,4.432,2.221,8.944,3.231,13.438c2.52,0.81,4.959,1.849,7.38,2.905c3.674-2.342,7.324-4.717,11.072-6.947
		c3.171,2.924,6.473,5.76,9.191,9.126c0.703,2.175-1.001,3.809-1.904,5.545c-1.341,2.286-3.171,4.358-4.014,6.9
		c0.615,2.659,1.938,5.126,2.863,7.697c4.252,0.875,8.475,1.876,12.693,2.891c0.288,4.326,0.554,8.675,0.274,13.01
		c-0.121,1.136-1.22,1.681-2.193,1.955c-3.538,1.002-7.161,1.69-10.77,2.38c-0.945,2.771-2.747,5.42-2.468,8.475
		c1.84,3.873,4.661,7.217,6.17,11.258c-3.269,3.181-6.375,6.519-9.657,9.676c-3.776-2.328-7.529-4.693-11.249-7.114
		c-2.421,1.085-4.856,2.15-7.395,2.929c-0.838,3.659-1.489,7.36-2.407,11.002c-0.307,1.066-0.759,2.417-2.048,2.57
		c-4.037,0.256-8.344,0.801-12.274-0.358c-1.489-2.547-1.471-5.671-2.202-8.488c-0.563-1.681-0.358-4.326-2.37-5.117
		c-1.974-0.856-3.938-2.049-6.108-2.263c-3.972,1.788-7.385,4.646-11.235,6.695c-3.176-2.924-6.473-5.769-9.21-9.126
		c-0.251-3.385,2.57-5.807,4.037-8.586c0.74-1.522,2.603-3.162,1.75-5.033c-0.856-2.156-1.42-4.563-2.933-6.375
		c-4.051-1.331-8.289-2.029-12.433-3.045c-0.33-4.446-0.642-8.93-0.261-13.382c1.97-2.389,5.546-1.997,8.255-2.9
		c1.77-0.61,4.512-0.419,5.374-2.505c0.936-2.026,2.021-4.079,2.347-6.295c-1.914-4.26-5.313-7.766-6.645-12.315
		c3.287-3.018,6.412-6.202,9.689-9.229c3.842,2.179,7.511,4.642,11.193,7.078c2.389-1.192,5.075-1.872,7.277-3.399
		C53.676,24.464,53.676,20.069,55.193,16.116 M60.726,39.872c-7.563,0.418-14.737,4.609-18.793,10.993
		c-5.797,8.391-5.107,20.566,1.369,28.388c6.816,8.73,19.975,12.014,29.832,6.557c9.345-4.67,15.179-15.724,12.953-26.07
		C84.137,48.034,72.603,38.782,60.726,39.872 M52.88,50.944c2.979-1.239,6.248-1.746,9.461-1.42c4.14,0.931,7.59,4.051,9.336,7.874
		c1.104,2.747,0.475,5.797,1.038,8.651c2.295,3.264,5.425,5.815,8.176,8.679c-2.332,3.711-5.518,6.812-9.414,8.847
		c-2.338-2.444-4.554-5.033-7.129-7.231c-1.169-1.042-2.966-0.32-4.298-0.582c-3.692,0.275-7.678-0.633-10.146-3.58
		c-2.831-2.323-3.413-6.007-3.926-9.396c3.479,1.876,6.729,4.246,10.477,5.592c1.076,0.572,1.896-0.875,2.729-1.174
		c1.202-1.038,2.967-1.913,3.315-3.627c0.461-2.138,0.652-4.312,0.866-6.477C59.742,55.274,56.204,53.277,52.88,50.944L52.88,50.944
		z"/>
</g>
</svg>
