<?xml version="1.0" encoding="utf-8"?>
<!-- Generator: Adobe Illustrator 16.2.0, SVG Export Plug-In . SVG Version: 6.00 Build 0)  -->
<!DOCTYPE svg PUBLIC "-//W3C//DTD SVG 1.1//EN" "http://www.w3.org/Graphics/SVG/1.1/DTD/svg11.dtd">
<svg version="1.1" id="Layer_1" xmlns="http://www.w3.org/2000/svg" xmlns:xlink="http://www.w3.org/1999/xlink" x="0px" y="0px"
	 width="122.927px" height="125px" viewBox="0 0 122.927 125" enable-background="new 0 0 122.927 125" xml:space="preserve">
<g>
	<path fill="none" stroke="#8E9092" stroke-width="4.252" stroke-miterlimit="22.9256" d="M13.553,6.126h96.323
		c4.634,0,8.426,3.792,8.426,8.426v96.323c0,4.635-3.792,8.426-8.426,8.426H13.553c-4.635,0-8.427-3.791-8.427-8.426V14.552
		C5.126,9.918,8.918,6.126,13.553,6.126L13.553,6.126z"/>
</g>
<g>
	<path fill="#666766" d="M50.128,24.642c1.973-0.109,4.064-0.493,5.98,0.196c1.011,0.283,1.713,1.307,1.731,2.338
		c0.303,5.335,1.328,10.589,1.938,15.892c-3.812,0.026-7.648,0.274-11.367,1.155c-0.432,0.108-0.899,0.316-1.094,0.745
		c-0.224,0.718,0.251,1.506,0.943,1.711c0.791-0.006,1.571-0.147,2.353-0.263c3.167-0.529,6.38-0.735,9.59-0.749
		c0.292,2.738,0.624,5.473,0.931,8.209c-3.143,0.175-6.315,0.236-9.417,0.822c-0.954,0.224-1.312,1.678-0.554,2.306
		c0.824,0.384,1.758,0.044,2.616,0.032c2.49-0.327,5.001-0.415,7.507-0.569c-0.011,1.717-0.126,3.432-0.055,5.149
		c-1.894,1.194-3.47,2.796-5.003,4.41c-0.469,0.513-0.948,1.095-0.911,1.847c0.382,0.496,0.906,1.139,1.643,0.856
		c0.703-0.242,1.112-0.921,1.611-1.426c1.157-1.413,2.601-2.553,4.093-3.59c1.21,1.042,2.389,2.125,3.53,3.241
		c-1.382,1.357-2.611,2.877-3.556,4.571c-0.513,0.996,1.155,2.048,1.915,1.304c1.197-1.361,2.194-2.895,3.568-4.098
		c1.792,1.658,3.339,3.55,4.733,5.549c-0.906,1.25-1.94,2.472-2.444,3.95c0.133,0.728,0.84,1.541,1.657,1.389
		c1.013-0.824,1.454-2.115,2.376-3.023c1.521,2.019,3.5,3.751,5.9,4.618c4.782,1.579,9.873,0.336,14.777,1.031
		c3.461,0.479,7.139,1.181,9.871,3.529c1.993,1.694,2.911,4.35,2.875,6.918c-4.479,2.193-9.354,3.459-14.246,4.321
		c-6.758,1.126-13.669,1.278-20.478,0.546c-6.84-0.636-13.454-2.619-20.227-3.683c-11.397-1.932-23.03-3.083-34.574-1.932
		c-1.079-3.895-0.866-8.036-0.041-11.956c0.809-4.487,2.499-8.745,4.3-12.911c1.868-4.232,2.491-8.905,2.584-13.495
		c-0.068-6.221-1.3-12.385-3.255-18.275c-0.58-1.955-1.43-3.812-2.073-5.744c2.829-2.006,6.17-3.189,9.577-3.74
		c3.374-0.693,6.834-0.266,10.246-0.254C43.182,25.506,46.654,25.046,50.128,24.642 M16.913,92.8
		c0.165,0.301,0.327,0.603,0.487,0.906c5.586-0.87,11.262-0.679,16.891-0.489c7.201,0.421,14.364,1.39,21.452,2.721
		c5.739,1.093,11.415,2.621,17.25,3.14c10.618,1.186,21.557,0.22,31.664-3.317c1.674-0.56,3.186-1.522,4.853-2.078
		c0.881,0.227,1.33,1.221,1.816,1.914v1.754c-0.434,0.81-0.943,1.64-1.822,2.021c-3.143,1.684-6.611,2.662-10.067,3.47
		c-7.265,1.555-14.712,2.163-22.136,2.109c-5.299-0.158-10.64-0.609-15.77-2.024c-2.944-0.806-5.759-2.07-8.77-2.638
		c-2.134-0.453-4.298-0.737-6.454-1.061c-0.44,1.134-0.818,2.356-1.714,3.232c-1.188,1.03-2.864,0.624-4.293,0.689
		c-7.767-0.383-15.511-1.239-23.29-1.373c-0.493-0.016-0.713-0.515-0.908-0.891v-3.549C16.366,95.823,16.623,94.309,16.913,92.8
		L16.913,92.8z"/>
</g>
</svg>
