<?xml version="1.0" encoding="utf-8"?>
<!-- Generator: Adobe Illustrator 16.2.0, SVG Export Plug-In . SVG Version: 6.00 Build 0)  -->
<!DOCTYPE svg PUBLIC "-//W3C//DTD SVG 1.1//EN" "http://www.w3.org/Graphics/SVG/1.1/DTD/svg11.dtd">
<svg version="1.1" id="Layer_1" xmlns="http://www.w3.org/2000/svg" xmlns:xlink="http://www.w3.org/1999/xlink" x="0px" y="0px"
	 width="122.927px" height="125px" viewBox="0 0 122.927 125" enable-background="new 0 0 122.927 125" xml:space="preserve">
<g>
	<path fill="none" stroke="#8E9092" stroke-width="4.252" stroke-miterlimit="22.9256" d="M13.553,6.126h96.323
		c4.634,0,8.426,3.792,8.426,8.426v96.323c0,4.635-3.792,8.426-8.426,8.426H13.553c-4.635,0-8.427-3.791-8.427-8.426V14.552
		C5.126,9.918,8.918,6.126,13.553,6.126L13.553,6.126z"/>
</g>
<g>
	<path fill="#787878" d="M29.193,14.516c1.532-0.12,3.071-0.059,4.607-0.066c20.959,0.01,41.917-0.007,62.876,0.007
		c3.595,0.318,6.656,3.695,6.512,7.328c0.014,26.585-0.007,53.172,0.011,79.759c0.062,3.052-2.055,6.014-4.975,6.92
		c-1.009,0.394-2.114,0.402-3.181,0.421c-21.541-0.017-43.081-0.006-64.622-0.006c-3.306,0.075-6.463-2.366-7.205-5.592
		c-0.25-0.868-0.224-1.783-0.25-2.676c0.005-25.614,0.012-51.23-0.002-76.845c0.034-1.119-0.114-2.261,0.151-3.362
		C23.62,17.421,26.178,14.895,29.193,14.516 M33.502,19.515c-2.656-0.091-5.023,2.301-4.933,4.947
		c-0.023,23.675,0.004,47.351-0.013,71.025c0.008,1.373-0.061,2.752,0.087,4.121c0.247,2.329,2.482,4.186,4.806,4.136
		c19.405,0.028,38.813-0.006,58.219,0.017c0.827-0.021,1.67-0.004,2.48-0.206c2.06-0.576,3.565-2.667,3.467-4.804
		c-0.03-24.842,0.008-49.683-0.019-74.523c-0.011-1.632-0.944-3.222-2.353-4.04c-1.091-0.587-2.354-0.748-3.576-0.733
		c-18.629,0.007-37.259,0.009-55.888-0.001C35.02,19.449,34.261,19.47,33.502,19.515 M35.23,26.83
		c13.805-0.085,27.611-0.012,41.416-0.036c4.8,0.019,9.601-0.038,14.399,0.025c0.063,2.035,0.06,4.073,0.006,6.109
		c-12.059,0.085-24.118,0.012-36.177,0.036C48.329,32.946,41.782,33,35.236,32.939C35.174,30.903,35.176,28.866,35.23,26.83
		 M35.23,39.521c12.641-0.085,25.283-0.012,37.924-0.036c5.963,0.019,11.928-0.038,17.892,0.025c0.063,2.035,0.06,4.073,0.006,6.109
		c-10.895,0.085-21.79,0.012-32.685,0.036c-7.71-0.019-15.421,0.036-23.131-0.025C35.174,43.594,35.176,41.557,35.23,39.521
		 M35.23,52.212c10.895-0.085,21.79-0.012,32.685-0.036c7.71,0.019,15.421-0.036,23.131,0.025c0.063,2.035,0.06,4.073,0.006,6.109
		c-8.953,0.085-17.909,0.012-26.863,0.036c-9.65-0.019-19.302,0.036-28.952-0.025C35.174,56.284,35.176,54.248,35.23,52.212
		 M35.23,64.902c8.864-0.066,17.728-0.05,26.592-0.008c0.063,2.034,0.059,4.071,0.006,6.106c-8.864,0.065-17.729,0.05-26.592,0.009
		C35.174,68.975,35.176,66.938,35.23,64.902 M77.582,68.713c2.739-0.372,5.541,0.15,8.056,1.262
		c-1.046,1.357-2.081,2.724-3.166,4.052c-2.141-0.646-4.497-0.737-6.604,0.087c-3.61,1.203-6.418,4.508-6.936,8.29
		c-0.77,4.029,1.254,8.34,4.686,10.522c2.954,1.939,6.942,2.23,10.132,0.698c3.124-1.416,5.465-4.475,5.969-7.873
		c0.121-0.73,0.053-1.48,0.183-2.207c0.419-0.602,0.993-1.072,1.528-1.567c0.912-0.808,1.731-1.712,2.644-2.521
		c1.289,4.063,0.799,8.631-1.345,12.316c-1.203,2.019-2.81,3.824-4.793,5.105c-2.56,1.815-5.727,2.637-8.843,2.655
		c-5.117-0.052-10.097-2.853-12.821-7.181c-2.584-4.025-3.15-9.299-1.4-13.762C66.815,73.269,71.943,69.282,77.582,68.713
		 M87.878,72.133c1.008-1.4,3.219-1.491,4.447-0.355c1.161,0.995,1.372,2.952,0.375,4.135c-3.532,4.227-7.123,8.404-10.654,12.632
		c-0.739,0.85-1.566,1.993-2.84,1.937c-1.072,0.194-2.067-0.438-2.758-1.196c-1.614-1.841-3.207-3.701-4.829-5.536
		c-0.503-0.539-0.794-1.264-0.778-2.005c-0.163-1.029,0.503-1.948,1.23-2.591c1.192-0.938,3.085-0.723,4.081,0.411
		c0.936,1.034,1.815,2.119,2.775,3.132C81.902,79.168,84.879,75.639,87.878,72.133L87.878,72.133z"/>
</g>
</svg>
