<?xml version="1.0" encoding="utf-8"?>
<!-- Generator: Adobe Illustrator 16.2.0, SVG Export Plug-In . SVG Version: 6.00 Build 0)  -->
<!DOCTYPE svg PUBLIC "-//W3C//DTD SVG 1.1//EN" "http://www.w3.org/Graphics/SVG/1.1/DTD/svg11.dtd">
<svg version="1.1" id="Layer_1" xmlns="http://www.w3.org/2000/svg" xmlns:xlink="http://www.w3.org/1999/xlink" x="0px" y="0px"
	 width="122.927px" height="125px" viewBox="0 0 122.927 125" enable-background="new 0 0 122.927 125" xml:space="preserve">
<g>
	<path fill="none" stroke="#8E9092" stroke-width="4.252" stroke-miterlimit="22.9256" d="M13.553,6.126h96.323
		c4.634,0,8.426,3.792,8.426,8.426v96.323c0,4.635-3.792,8.426-8.426,8.426H13.553c-4.635,0-8.427-3.791-8.427-8.426V14.552
		C5.126,9.918,8.918,6.126,13.553,6.126L13.553,6.126z"/>
</g>
<g>
	<path fill="#666766" d="M66.09,15.453c1.598-0.596,3.289-0.953,4.815-1.744c0.716,0.499,1.425,1.009,2.126,1.526
		c0.079-0.615,0.158-1.23,0.24-1.845c2.19,1.005,3.581,3.063,5.396,4.571c2.032,1.556,2.715,4.076,3.574,6.349
		c2.351,3.833,0.862,8.741-0.004,12.802c1.983-3.229,3.142-6.844,4.751-10.249c0.514-1.17,1.912-1.26,3.007-1.462
		c0.158-1.357,0.293-2.76,0.9-4.005c0.593-1.136,2.04-1.08,3.135-1.282c0.521-1.309,0.87-3.12,2.344-3.731
		c1.088-0.465,2.108,0.364,3.049,0.806c1.32-0.63,2.877-1.608,4.324-0.753c1.478,0.54,2.085,2.197,1.751,3.694
		c-0.143,1.958,0.416,3.938,0.12,5.876c-0.941,0.769-2.055,1.287-3.102,1.886c-0.015,1.211-0.022,2.419-0.056,3.63
		c-1.966,0.698-3.982,1.227-6.045,1.538c0.015,0.582,0.029,1.163,0.037,1.744c-3.915,1.444-8.111,2.494-11.49,5.063
		c2.115-0.454,4.216-1.2,6.409-1.14c1.89,0.075,3.997-0.487,5.692,0.626c2.531,1.436,5.88,1.939,7.56,4.534
		c1.309,1.691,3.184,2.94,4.069,4.938c-0.57,0.06-1.137,0.116-1.706,0.172c0.569,1.005,1.484,2.1,0.993,3.327
		c-0.656,1.77-0.858,4.661-3.165,5.137c-2.122,0.739-3.206-1.519-4.537-2.685c-0.713,1.845-1.035,4.845-3.487,4.965
		c-1.546-1.065-2.37-2.933-4.129-3.746c-1.271-0.676-1.767-2.07-2.235-3.334c-0.634-0.056-1.268-0.116-1.901-0.188
		c-0.449-0.911-0.73-1.928-1.293-2.771c-2.307-1.886-5.6-2.265-8.39-1.335c-1.297,0.428-2.55,0.964-3.82,1.451
		c4.335,5.111,8.11,11.362,7.848,18.315c-0.007,1.005-0.168,2.13-0.903,2.876c-2.257,1.871-4.773,3.39-7.237,4.969
		c-2.37-2.479-4.744-5.101-7.938-6.532c1.496,2.629,3.277,5.306,3.292,8.456c0.274,1.327-0.982,2.212-1.767,3.071
		c-3.307,2.813-6.93,5.295-10.859,7.154c-1.068,0.436-2.193,0.957-3.371,0.855c-2.58-1.766-4.335-4.47-6.852-6.326
		c1.186,2.91,2.737,5.737,3.079,8.918c-9.375,5.347-18.604,11.051-28.59,15.209c-2.426,1.055-5.104,1.257-7.717,1.302
		c0.322-3.597,1.237-7.121,2.76-10.396c4.961-11.084,10.732-21.828,17.448-31.953c2.394,0.247,4.827,0.383,7.137,1.103
		c2.209,0.832,4.223,2.085,6.297,3.198c-1.579-2.497-3.391-4.9-5.816-6.637c-1.29-1.182-3.064-1.965-3.938-3.548
		c0.851-3.69,3.708-6.544,5.587-9.724c2.689-3.424,4.856-7.301,8.021-10.328c2.768-1.118,6.008-0.593,8.802,0.229
		c4.473,1.387,8.336,4.166,11.973,7.035c1.193-2.903,2.404-5.974,1.789-9.188c-0.614-1.624-1.594-3.296-3.379-3.84
		c-0.971-0.401-1.192-1.47-1.454-2.374c-1.76-0.577-3.169-1.796-3.863-3.563c-0.915-1.263-3.968-2.13-2.651-4.091
		c1.171-1.271,3.02-1.662,4.613-2.213c-0.957-0.938-2.082-1.766-2.771-2.933C64.369,17.624,64.736,15.899,66.09,15.453L66.09,15.453
		z"/>
</g>
</svg>
