<?xml version="1.0" encoding="utf-8"?>
<!-- Generator: Adobe Illustrator 16.2.0, SVG Export Plug-In . SVG Version: 6.00 Build 0)  -->
<!DOCTYPE svg PUBLIC "-//W3C//DTD SVG 1.1//EN" "http://www.w3.org/Graphics/SVG/1.1/DTD/svg11.dtd">
<svg version="1.1" id="Layer_1" xmlns="http://www.w3.org/2000/svg" xmlns:xlink="http://www.w3.org/1999/xlink" x="0px" y="0px"
	 width="122.927px" height="125px" viewBox="0 0 122.927 125" enable-background="new 0 0 122.927 125" xml:space="preserve">
<g>
	<path fill="none" stroke="#8E9092" stroke-width="4.252" stroke-miterlimit="22.9256" d="M13.553,6.126h96.323
		c4.634,0,8.426,3.792,8.426,8.426v96.323c0,4.635-3.792,8.426-8.426,8.426H13.553c-4.635,0-8.427-3.791-8.427-8.426V14.552
		C5.126,9.918,8.918,6.126,13.553,6.126L13.553,6.126z"/>
</g>
<g>
	<path fill="#666766" d="M97.016,17.15c4.24-2.715,11.297,0.401,10.779,5.793c0.684,3.321-1.92,5.809-3.939,8.002
		c-4.959,4.955-9.76,10.107-15.283,14.456c-4.279,3.353-8.539,6.736-13.043,9.783c-1.494,1.055-3.391,1.189-4.979,2.055
		c-1.216,0.873-2.29,1.928-3.387,2.943c7.987,7.833,16.001,15.708,22.907,24.525c0.808,1.363,2.093,2.623,2.248,4.264
		c-0.104,1.974-1.681,3.414-2.789,4.905c-3.418,4.021-6.863,8.064-10.837,11.552c-1.321,0.985-3.152,2.163-4.797,1.236
		c-1.205-0.711-2.279-1.618-3.399-2.445c-2.742,2.117-5.558,5.272-9.327,4.774c-3.986-3.059-7.385-6.794-11.038-10.228
		c-7.072-6.442-13.534-13.514-20.609-19.948c-4.086-4.534-8.481-8.771-12.765-13.116c-1.87-1.58-2.155-4.5-1-6.582
		c2.649-4.198,6.396-7.52,9.875-11c2.074-1.815,4.229-4.194,7.269-3.97c1.572-0.212,2.658,1.163,3.789,1.997
		c2.815,2.456,5.543,5.021,8.254,7.593c11.425,11.37,22.919,22.69,33.602,34.769c1.086,1.097,1.796,2.688,1.379,4.252
		c-1.239,3.155-3.696,5.597-5.773,8.207c0.316,0.395,0.633,0.792,0.95,1.189c3.742-3.298,7.558-6.635,10.447-10.744
		c0.51-0.823,1.231-1.869,0.668-2.839c-1.379-2.398-3.303-4.426-5.056-6.547c-5.276-6.152-10.51-12.409-16.743-17.627
		c-1.302-1.232-3.244-2.507-2.452-4.662c1.186-2.545,3.843-4.078,5.086-6.593c1.232-4.384,4.346-7.86,6.987-11.452
		c3.777-4.82,7.454-9.752,11.846-14.039C89.53,24.087,92.806,20.085,97.016,17.15 M31.137,50.582
		c-2.908,1.174-5.109,3.649-7.161,5.933c-1.255,1.599-2.923,3.395-2.502,5.615c2.92,4.105,6.639,7.539,9.987,11.278
		c3.728,3.738,7.315,7.616,11.162,11.235c5.554,5.388,10.814,11.085,16.593,16.244c1.282,1.035,2.568,2.635,4.495,1.974
		c3.109-1.324,5.16-4.151,7.543-6.419c1.286-1.529,3.372-3.059,2.773-5.372c-0.618-1.657-2.102-2.792-3.194-4.121
		C59.135,75.212,47.451,63.447,35.347,52.127C34.126,51.185,32.937,49.628,31.137,50.582L31.137,50.582z"/>
</g>
</svg>
