<?xml version="1.0" encoding="utf-8"?>
<!-- Generator: Adobe Illustrator 16.2.0, SVG Export Plug-In . SVG Version: 6.00 Build 0)  -->
<!DOCTYPE svg PUBLIC "-//W3C//DTD SVG 1.1//EN" "http://www.w3.org/Graphics/SVG/1.1/DTD/svg11.dtd">
<svg version="1.1" id="Layer_1" xmlns="http://www.w3.org/2000/svg" xmlns:xlink="http://www.w3.org/1999/xlink" x="0px" y="0px"
	 width="122.927px" height="125px" viewBox="0 0 122.927 125" enable-background="new 0 0 122.927 125" xml:space="preserve">
<g>
	<path fill="none" stroke="#8E9092" stroke-width="4.252" stroke-miterlimit="22.9256" d="M13.553,6.126h96.323
		c4.634,0,8.426,3.792,8.426,8.426v96.323c0,4.635-3.792,8.426-8.426,8.426H13.553c-4.635,0-8.427-3.791-8.427-8.426V14.552
		C5.126,9.918,8.918,6.126,13.553,6.126L13.553,6.126z"/>
</g>
<g>
	<path fill="#666766" d="M94.605,15.677c1.005-1.804,3.152-2.964,5.215-2.631c2.92,0.213,5.205,3.285,4.588,6.145
		c-0.338,3.042-3.786,5.126-6.653,4.223c-1.333-0.32-2.334-1.337-3.242-2.297c-1.806,0.542-3.621,1.047-5.427,1.588
		c-18.515,5.65-37.089,11.105-55.604,16.757c0.189,0.899,0.354,1.804,0.507,2.712c20.772,0.037,41.544-0.026,62.315,0.029
		c3.426-0.096,6.979,1.09,9.277,3.714c1.519,1.604,2.304,3.722,2.818,5.831v47.496c-0.513,2.064-1.294,4.134-2.806,5.686
		c-1.657,2.007-4.107,3.154-6.604,3.723H21.942c-2.913-0.655-5.774-2.177-7.442-4.727c-0.992-1.395-1.563-3.034-1.974-4.682V51.746
		c0.485-1.928,1.152-3.878,2.461-5.416c1.398-1.821,3.475-2.92,5.572-3.738c0.117-0.856,0.236-1.714,0.432-2.556
		c0.651-2.19,2.637-3.854,4.861-4.278c1.469-0.395,2.954,0.317,4.432,0.133c19.503-5.389,39.009-10.795,58.505-16.212
		c1.602-0.447,3.239-0.788,4.808-1.346C94.152,17.553,94.163,16.518,94.605,15.677 M23.557,49.689
		c0.012,4.595-0.037,9.189,0.004,13.782c-0.146,0.288-0.006,1.013,0.45,0.911c15.824,0.016,31.651,0.005,47.476,0.003
		c0.008-4.899,0.006-9.799,0.002-14.698C55.512,49.687,39.533,49.684,23.557,49.689 M75.278,49.689
		c-0.161,1.729-0.118,3.469-0.12,5.204c0.042,3.164-0.093,6.333,0.124,9.494c6.804,0.009,13.606-0.011,20.411,0.015
		c0.622-0.119,2.113,0.354,1.676-0.933c0.032-4.593-0.01-9.188,0.003-13.782C90.007,49.684,82.643,49.684,75.278,49.689
		 M84.571,75.039c-3.929,0.536-7.474,3.26-8.977,6.934c-2.029,4.487-0.689,10.212,3.104,13.349c1.986,1.746,4.593,2.678,7.21,2.876
		c2.354-0.039,4.746-0.634,6.722-1.947c3.186-1.983,5.083-5.655,5.316-9.351c-0.064-2.354-0.612-4.763-1.965-6.722
		C93.632,76.418,88.948,74.319,84.571,75.039 M24.995,75.627c-1.365,0.256-1.477,1.867-1.455,3.001
		c0.066,5.611-0.077,11.226,0.067,16.834c-0.07,0.986,0.725,2.101,1.775,2.018c1.167,0.11,1.993-1.075,1.821-2.155
		c0.048-5.868,0.051-11.74,0-17.609C27.416,76.499,26.258,75.194,24.995,75.627 M32.189,75.618
		c-0.652,0.242-1.176,0.913-1.141,1.628c0.006,5.874,0.012,11.75,0.002,17.625c0.114,0.655-0.178,1.541,0.421,2.034
		c0.537,0.668,1.693,0.877,2.345,0.257c0.924-0.523,0.672-1.739,0.764-2.598c-0.038-5.862,0.089-11.729-0.058-17.588
		C34.423,75.877,33.165,75.335,32.189,75.618 M39.703,75.643c-0.928,0.15-1.395,1.201-1.286,2.064
		c-0.027,5.618-0.003,11.238-0.008,16.857c0.091,0.859-0.157,2.075,0.765,2.601c0.983,0.841,2.729,0.075,2.76-1.219
		c0.012-5.926-0.011-11.853,0.006-17.778c-0.116-0.661,0.178-1.539-0.421-2.033C41.094,75.583,40.354,75.407,39.703,75.643
		 M47.054,75.639c-0.921,0.182-1.352,1.22-1.267,2.076c-0.093,4.593,0.02,9.188-0.035,13.782c0.018,1.588-0.082,3.191,0.133,4.772
		c0.251,1.243,2.099,1.673,2.914,0.718c0.746-0.623,0.608-1.717,0.652-2.577c-0.018-4.852-0.027-9.702,0.002-14.554
		c-0.037-1.166,0.072-2.377-0.346-3.491C48.628,75.745,47.85,75.315,47.054,75.639 M54.404,75.639
		c-0.92,0.182-1.351,1.22-1.267,2.076c-0.071,5.614-0.007,11.234-0.028,16.85c0.074,0.757-0.096,1.675,0.451,2.303
		c0.581,0.698,1.861,0.914,2.504,0.184c0.678-0.57,0.78-1.51,0.734-2.333c-0.021-5.363,0.001-10.727-0.011-16.09
		c-0.053-0.841,0.06-1.829-0.544-2.514C55.821,75.567,55.043,75.439,54.404,75.639 M61.755,75.632
		c-0.829,0.216-1.239,1.134-1.277,1.924c-0.066,4.595,0.024,9.192-0.023,13.788c0.019,1.59-0.076,3.193,0.124,4.777
		c0.197,1.187,1.7,1.775,2.702,1.111c0.865-0.478,0.83-1.657,0.866-2.513c0.013-4.597-0.032-9.194,0.005-13.79
		c-0.014-1.337,0.046-2.684-0.127-4.01C63.883,75.909,62.698,75.294,61.755,75.632 M85.184,79.933
		c3.161-0.641,6.591,1.401,7.456,4.512c0.836,2.524,0.064,5.514-2.015,7.197c-2.614,2.351-7.169,2.027-9.408-0.685
		c-1.671-1.815-2.044-4.591-1.219-6.872C80.869,81.954,82.842,80.178,85.184,79.933L85.184,79.933z"/>
</g>
</svg>
