<?xml version="1.0" encoding="utf-8"?>
<!-- Generator: Adobe Illustrator 16.2.0, SVG Export Plug-In . SVG Version: 6.00 Build 0)  -->
<!DOCTYPE svg PUBLIC "-//W3C//DTD SVG 1.1//EN" "http://www.w3.org/Graphics/SVG/1.1/DTD/svg11.dtd">
<svg version="1.1" id="Layer_1" xmlns="http://www.w3.org/2000/svg" xmlns:xlink="http://www.w3.org/1999/xlink" x="0px" y="0px"
	 width="122.927px" height="125px" viewBox="0 0 122.927 125" enable-background="new 0 0 122.927 125" xml:space="preserve">
<g>
	<path fill="none" stroke="#8E9092" stroke-width="4.252" stroke-miterlimit="22.9256" d="M13.553,6.126h96.323
		c4.634,0,8.426,3.792,8.426,8.426v96.323c0,4.635-3.792,8.426-8.426,8.426H13.553c-4.635,0-8.427-3.791-8.427-8.426V14.552
		C5.126,9.918,8.918,6.126,13.553,6.126L13.553,6.126z"/>
</g>
<g>
	<path fill="#666766" d="M53.63,23.636c0.575-0.521,1.394-0.486,2.1-0.329c15.605,2.827,31.216,5.625,46.82,8.456
		c0.652,0.052,1.393,0.396,1.515,1.106c0.355,1.083-0.778,1.729-1.44,2.357c-0.06,2.596-0.03,5.191-0.028,7.787
		c1.992,0.437,4.023,0.666,6.008,1.133c0.825,0.157,1.211,1.169,0.957,1.914c-0.367,0.611-0.959,1.036-1.484,1.499
		c-0.032,2.978-0.028,5.957-0.002,8.936c0.605,0.22,1.441,0.266,1.657,1.007c0.372,0.674-0.013,1.419-0.555,1.838
		c-1.42,1.24-2.872,2.442-4.313,3.658c-0.025,2.521-0.018,5.044-0.01,7.566c0.745,0.212,1.808,0.565,1.66,1.563
		c0.162,0.59-0.347,0.961-0.682,1.333c-10.705,9.143-21.43,18.261-32.104,27.438c-0.371,0.303-0.716,0.686-1.188,0.835
		c-0.559,0.14-1.14-0.049-1.693-0.111c-16.822-3.556-33.652-7.076-50.481-10.6c-1.395-0.104-2.282-1.305-2.972-2.381
		c-1.142-1.754-1.586-3.877-1.637-5.946c-0.051-2.049,0.475-4.171,1.787-5.783c0.851-0.995,2.015-1.634,3.097-2.339
		c-0.364-0.827-0.796-1.626-1.072-2.488c-0.655-2.301-0.718-4.803,0.045-7.084c-1.1-0.321-2.451-0.296-3.269-1.217
		c-1.825-1.927-2.76-4.589-2.758-7.225c-0.15-2.559,0.656-5.365,2.785-6.952C28.818,40.99,41.2,32.277,53.63,23.636 M71.3,61.983
		c-0.543,0.472-1.135,0.915-1.849,1.075c-0.026,3.106-0.017,6.213-0.006,9.32C79.523,63.875,89.5,55.252,99.598,46.774
		c0.043-3.003,0.027-6.007,0.015-9.01C90.228,45.899,80.714,53.883,71.3,61.983 M88.451,64.282
		c-3.935,3.398-7.931,6.724-11.846,10.144c-0.501,0.4-1.064,0.731-1.686,0.904c-0.022,3.111-0.043,6.224,0.018,9.335
		c10.112-8.552,20.188-17.147,30.267-25.739c0.001-2.975,0.013-5.948-0.006-8.92C99.592,54.735,94.047,59.54,88.451,64.282
		 M19.059,52.366c-0.012,3.175-0.011,6.349,0.001,9.525c4.244,0.929,8.505,1.773,12.752,2.688c11.555,2.377,23.086,4.88,34.648,7.22
		c0.011-3.17,0.012-6.338-0.001-9.506C50.65,59.027,34.862,55.665,19.059,52.366 M78.211,85.772
		c-0.742,0.595-1.404,1.295-2.207,1.81c-0.633,0.195-1.429-0.185-1.979,0.292c-0.748,0.601-1.455,1.287-2.399,1.564
		c-0.147,3.1-0.006,6.222-0.037,9.329c2.993-2.425,5.881-4.979,8.829-7.459c7.01-5.987,14.034-11.957,21.058-17.927
		c0.356-0.316,0.698-0.715,0.527-1.251c0.023-2.201-0.001-4.403-0.038-6.604C93.992,72.21,86.151,79.05,78.211,85.772
		 M24.523,66.039c-0.008,2.703-0.007,5.406,0,8.111c15.838,3.343,31.687,6.636,47.525,9.979c-0.015-3.228,0.063-6.456-0.053-9.682
		c-0.976,0.209-1.612,1.406-2.721,0.931C54.348,72.315,39.452,69.092,24.523,66.039 M21.218,78.692
		c0.047,3.176,0.032,6.354,0.015,9.531c15.826,3.33,31.651,6.669,47.485,9.958c0.011-3.175,0.011-6.349-0.001-9.524
		C52.886,85.329,37.054,82.005,21.218,78.692L21.218,78.692z"/>
</g>
</svg>
