<?xml version="1.0" encoding="utf-8"?>
<!-- Generator: Adobe Illustrator 16.2.0, SVG Export Plug-In . SVG Version: 6.00 Build 0)  -->
<!DOCTYPE svg PUBLIC "-//W3C//DTD SVG 1.1//EN" "http://www.w3.org/Graphics/SVG/1.1/DTD/svg11.dtd">
<svg version="1.1" id="Layer_1" xmlns="http://www.w3.org/2000/svg" xmlns:xlink="http://www.w3.org/1999/xlink" x="0px" y="0px"
	 width="122.927px" height="125px" viewBox="0 0 122.927 125" enable-background="new 0 0 122.927 125" xml:space="preserve">
<g>
	<path fill="none" stroke="#8E9092" stroke-width="4.252" stroke-miterlimit="22.9256" d="M13.553,6.126h96.323
		c4.634,0,8.426,3.792,8.426,8.426v96.323c0,4.635-3.792,8.426-8.426,8.426H13.553c-4.635,0-8.427-3.791-8.427-8.426V14.552
		C5.126,9.918,8.918,6.126,13.553,6.126L13.553,6.126z"/>
</g>
<g>
	<path fill="#666766" d="M79.318,14.623c9.365-0.636,18.773,4.076,24.157,11.709c2.72,3.935,4.601,8.509,5.006,13.298
		c1.184,9.265-2.928,18.904-10.218,24.679c-6.997,5.81-16.955,7.759-25.645,5.113c-5.471-1.713-10.473-5.021-13.986-9.572
		c-4.94-6.208-6.989-14.589-5.521-22.38c1.117-6.108,4.376-11.777,9.007-15.902C66.875,17.442,72.993,14.838,79.318,14.623
		 M78.184,19.729c-4.862,0.464-9.52,2.63-13.12,5.916c-2.798,2.653-4.995,5.955-6.232,9.618c-2.232,6.604-1.246,14.242,2.668,20.021
		c4.633,7.146,13.535,11.332,21.997,10.092c7.599-0.82,14.563-5.823,17.822-12.728c3.765-7.427,2.912-16.936-2.073-23.599
		C94.572,22.479,86.219,18.686,78.184,19.729 M77.963,28.87c1.538,0.015,3.078,0.009,4.618-0.009
		c0.028,0.808,0.057,1.617,0.079,2.427c0.484,0.213,0.968,0.434,1.449,0.664l0.517-0.611c1.445-0.331,2.948-0.176,4.42-0.246
		c0.004,2.35,0.002,4.699,0,7.048c-1.538-0.042-3.074-0.072-4.608-0.089c-0.99-0.798-1.86-1.877-3.142-2.198
		c-1.018-0.253-2.091-0.23-3.125-0.13c-0.621,0.268-1.138,0.725-1.704,1.085c0.184,0.702,0.016,1.734,0.74,2.195
		c2.227,1.523,5.138,1.111,7.508,2.306c2.576,1.04,4.819,3.517,4.729,6.425c0.165,2.263-1.394,4.323-3.229,5.473
		c-1.092,0.575-2.34,0.766-3.526,1.053c-0.024,0.489-0.075,1.466-0.101,1.955c-1.517,0.012-3.028,0.039-4.542,0.119
		c-0.12-1.085,0.176-2.396-0.735-3.21c-1.368,1.356-3.536,0.664-5.25,0.876c-0.011-2.325-0.008-4.65,0.053-6.975
		c1.384,0.013,2.807-0.17,4.175,0.071c1.302,0.659,2.308,1.896,3.781,2.238c1.411,0.277,3.198,0.511,4.312-0.604
		c0.607-0.517,0.468-1.468,0.066-2.063c-1.779-1.763-4.469-1.646-6.726-2.329c-2.721-0.808-5.563-2.808-5.821-5.873
		c-0.338-2.038,0.476-4.14,1.985-5.516c1.028-1.102,2.504-1.563,3.911-1.957C77.852,30.287,77.906,29.58,77.963,28.87 M15.29,67.183
		c8.282-0.014,16.563-0.018,24.845,0.001c0.1,0.695,0.188,1.388,0.271,2.086c8.505-1.625,17.385-1.718,25.827,0.332
		c6.752,1.628,13.154,4.779,18.451,9.293c1.232,0.983,2.07,2.35,2.783,3.736c1.884-2.095,3.852-4.109,5.944-5.995
		c1.64-1.687,3.455-3.434,5.835-3.947c3.508-1.093,7.497,0.415,9.71,3.265c1.736,2.097,2.313,4.938,1.914,7.597
		c-0.878,3.55-3.708,6.035-6.05,8.65c-2.886,3.025-5.906,5.918-8.924,8.811c-4.163,4.161-9.452,7.159-15.14,8.659
		c-7.682,1.898-15.982,1.302-23.234-1.907c-3.229-1.28-5.952-3.538-9.19-4.795c-2.421-0.949-5.103-1.54-7.693-1.025
		c-0.058,1.938-0.284,3.865-0.441,5.796c-8.285-0.018-16.571,0.075-24.855-0.048C13.99,94.234,13.899,80.639,15.29,67.183
		 M40.732,73.619c0.479,7.888,0.793,15.798,0.19,23.688c3.821-0.048,7.711,0.564,11.14,2.317c2.678,1.203,4.985,3.098,7.726,4.172
		c7.287,3.117,15.766,3.274,23.184,0.514c3.107-1.248,6.214-2.763,8.578-5.191c3.862-3.876,7.731-7.742,11.605-11.609
		c1.172-1.235,2.451-2.468,3.097-4.083c0.47-1.357,0.311-2.929-0.444-4.153c-1.368-2.52-5.312-3.291-7.366-1.196
		c-3.05,2.666-5.969,5.479-8.77,8.406c-1.607,1.544-2.266,3.727-3.559,5.493c-2.01,2.727-5.641,4.054-8.954,3.523
		c-4.755-0.647-9.295-2.282-13.764-3.969c0.489-1.402,1.02-2.787,1.555-4.168c3.831,1.349,7.63,2.856,11.642,3.587
		c1.567,0.266,3.32,0.326,4.696-0.599c2.723-1.385,3.104-5.601,0.904-7.642c-2.51-2.394-5.503-4.231-8.616-5.731
		C63.43,72.113,51.666,71.399,40.732,73.619L40.732,73.619z"/>
</g>
</svg>
