<?xml version="1.0" encoding="utf-8"?>
<!-- Generator: Adobe Illustrator 16.2.0, SVG Export Plug-In . SVG Version: 6.00 Build 0)  -->
<!DOCTYPE svg PUBLIC "-//W3C//DTD SVG 1.1//EN" "http://www.w3.org/Graphics/SVG/1.1/DTD/svg11.dtd">
<svg version="1.1" id="Layer_1" xmlns="http://www.w3.org/2000/svg" xmlns:xlink="http://www.w3.org/1999/xlink" x="0px" y="0px"
	 width="122.927px" height="125px" viewBox="0 0 122.927 125" enable-background="new 0 0 122.927 125" xml:space="preserve">
<g>
	<path fill="none" stroke="#8E9092" stroke-width="4.252" stroke-miterlimit="22.9256" d="M13.553,6.126h96.323
		c4.634,0,8.426,3.792,8.426,8.426v96.323c0,4.635-3.792,8.426-8.426,8.426H13.553c-4.635,0-8.427-3.791-8.427-8.426V14.552
		C5.126,9.918,8.918,6.126,13.553,6.126L13.553,6.126z"/>
</g>
<g>
	<path fill="#444444" d="M33.91,13.491c0.573,0.929,0.985,1.944,1.407,2.947c1.124,2.588,2.057,5.259,2.825,7.974
		c0.619,2.354,1.043,4.794,0.859,7.237c-0.142,1.266-0.611,2.624-1.688,3.393c-0.803,0.686-1.928,0.785-2.938,0.785
		c-1.393,0.06-2.824-0.508-3.732-1.578c-0.705-0.903-1.078-2.035-1.183-3.167c-0.148-1.874-0.106-3.772,0.295-5.614
		C30.609,21.322,31.945,17.247,33.91,13.491 M95.935,26.621c1.227-1.188,2.414-2.463,3.864-3.385
		c0.151,3.868-0.128,7.749-0.759,11.566c-0.449,2.348-0.987,4.731-2.181,6.83c-0.576,1.004-1.372,1.951-2.465,2.405
		c-1.282,0.504-2.729,0.178-3.886-0.493c-1.163-0.597-2.201-1.635-2.432-2.963c-0.44-2.129,0.486-4.212,1.489-6.036
		C91.279,31.604,93.525,29.009,95.935,26.621 M17.145,24c0.299,1.452,0.561,2.941,1.272,4.26c1.241,2.272,3.251,4.041,5.464,5.339
		c1.352,0.813,2.852,1.341,4.203,2.152c1.462,0.921,2.914,1.967,3.841,3.459c1.02,1.378,1.273,3.278,0.674,4.879
		c-0.688,1.6-2.348,2.895-4.155,2.743c-2.229,0.106-4.236-1.207-5.68-2.797c-1.483-1.746-2.57-3.8-3.38-5.935
		c-1.159-2.954-1.824-6.078-2.209-9.221C17.019,27.261,16.875,25.613,17.145,24 M50.453,24.001c0.3,0.863,0.236,1.799,0.219,2.697
		c-0.094,2.915-0.711,5.782-1.447,8.592c-0.85,2.83-1.927,5.66-3.748,8.021c-1.059,1.438-2.493,2.648-4.197,3.229
		c-1.198,0.324-2.505,0.568-3.69,0.033c-1.967-0.74-3.15-2.934-2.854-4.988c0.214-1.083,0.7-2.102,1.396-2.958
		c1.518-1.889,3.67-3.133,5.854-4.105c3.051-1.403,5.957-3.553,7.433-6.653C50.051,26.675,50.232,25.317,50.453,24.001
		 M79.183,27.341c0.259-0.592,0.628-1.13,1.029-1.634c-0.583,1.744-0.915,3.607-0.602,5.441c0.488,2.744,1.827,5.282,3.602,7.41
		c1.63,1.905,3.176,3.99,3.83,6.45c0.264,1.368,0.366,2.893-0.361,4.14c-0.723,1.403-2.199,2.427-3.8,2.438
		c-1.409,0.188-2.721-0.541-3.729-1.451c-1.215-1.043-1.926-2.553-2.394-4.055c-0.75-2.857-0.652-5.861-0.315-8.771
		C76.943,33.893,77.802,30.512,79.183,27.341 M50.44,38.206c0.534,2.298,0.111,4.677-0.229,6.976
		c-0.824,4.437-2.104,8.953-4.888,12.591c-1.488,1.923-3.768,3.459-6.285,3.343c-1.346,0.012-2.583-0.747-3.401-1.776
		c-0.907-1.188-1.153-2.82-0.729-4.242c0.623-1.797,1.944-3.278,3.499-4.338c2.054-1.48,4.534-2.211,6.587-3.692
		c1.782-1.301,3.447-2.887,4.402-4.908C50.011,40.929,50.279,39.562,50.44,38.206 M17.146,38.299
		c0.236,1.08,0.418,2.183,0.833,3.214c1.073,2.72,3.316,4.822,5.806,6.266c1.432,0.875,3.035,1.424,4.45,2.328
		c1.61,0.978,3.136,2.223,4.04,3.91c0.959,1.659,0.932,3.92-0.333,5.417c-1.186,1.625-3.499,2.095-5.331,1.415
		c-2.5-0.729-4.313-2.84-5.591-5.012c-1.658-2.894-2.646-6.125-3.325-9.375C17.242,43.777,16.714,41.021,17.146,38.299
		 M72.671,41.492c0.418-1.043,0.846-2.112,1.61-2.957c-0.614,1.682-0.935,3.496-0.671,5.283c0.384,3.05,2.029,5.78,3.977,8.094
		c1.571,1.877,3.042,3.981,3.526,6.425c0.265,1.249,0.171,2.612-0.464,3.738c-0.793,1.614-2.646,2.634-4.434,2.431
		c-1.087,0.003-2.032-0.634-2.864-1.261c-1.592-1.319-2.467-3.317-2.846-5.31c-0.6-3.169-0.355-6.435,0.23-9.587
		C71.187,46.014,71.824,43.714,72.671,41.492 M107.24,43.221c1.32-0.908,2.31-2.193,3.149-3.54
		c-0.277,1.551-1.145,2.902-1.906,4.254c-2.076,3.446-4.678,6.59-7.739,9.206c-2.192,1.726-4.792,3.312-7.688,3.202
		c-1.507-0.037-3.042-0.611-4.059-1.754c-1.285-1.567-1.434-4.011-0.17-5.635c0.777-1.205,2.099-1.903,3.389-2.433
		c2.823-0.994,5.854-0.718,8.784-0.967C103.207,45.218,105.424,44.568,107.24,43.221 M65.771,56.811
		c0.633-1.684,1.109-3.512,2.27-4.929c-0.69,2.035-0.992,4.279-0.414,6.379c0.622,2.708,2.13,5.118,3.938,7.191
		c1.699,2.032,3.29,4.389,3.468,7.115c0.201,1.814-0.694,3.768-2.313,4.662c-1.1,0.643-2.492,0.859-3.698,0.397
		c-1.366-0.502-2.551-1.484-3.296-2.735c-1.318-2.028-1.676-4.507-1.7-6.881C63.882,64.204,64.68,60.436,65.771,56.811
		 M102.446,55.161c0.813-0.71,1.272-1.71,1.954-2.532c-0.169,0.958-0.617,1.835-1.051,2.695c-1.797,3.349-4.12,6.4-6.775,9.112
		c-2.303,2.166-4.951,4.27-8.166,4.767c-2.01,0.314-4.366-0.226-5.614-1.951c-0.996-1.347-1.144-3.28-0.339-4.753
		c0.607-1.285,1.794-2.19,3.062-2.77c2.693-1.232,5.712-0.985,8.591-1.165C97.133,58.306,100.212,57.288,102.446,55.161
		 M17.147,52.915c0.292,1.426,0.546,2.89,1.234,4.188c1.206,2.228,3.134,4.008,5.292,5.301c1.706,1.066,3.662,1.674,5.293,2.863
		c1.569,1.057,3.022,2.442,3.686,4.256c0.71,1.991,0.061,4.441-1.787,5.569c-1.866,1.239-4.347,0.733-6.118-0.419
		c-2.104-1.348-3.451-3.534-4.555-5.714c-1.821-4.033-2.868-8.404-3.163-12.815C16.996,55.07,16.923,53.974,17.147,52.915
		 M49.02,57.552c0.861-1.403,1.216-3.028,1.435-4.64c0.476,2.224,0.128,4.51-0.205,6.73c-0.666,3.771-1.71,7.532-3.615,10.881
		c-1.004,1.648-2.188,3.283-3.895,4.265c-1.151,0.755-2.544,1.032-3.902,1.033c-1.947-0.174-3.715-1.743-4.031-3.69
		c-0.34-1.481,0.174-3.028,1.057-4.222c1.457-2.038,3.71-3.295,5.927-4.347C44.659,62.239,47.386,60.314,49.02,57.552 M59.59,70.029
		c0.561-1.544,1.025-3.205,2.099-4.487c-0.282,1.042-0.63,2.075-0.682,3.164c-0.218,2.562,0.684,5.071,1.952,7.257
		c1.396,2.43,3.607,4.304,4.783,6.873c1.161,2.17,1.483,5.124-0.201,7.112c-0.772,0.813-1.816,1.405-2.944,1.513
		c-1.515,0.254-2.964-0.559-4.061-1.526c-1.667-1.532-2.404-3.795-2.702-5.979C57.245,79.252,58.136,74.495,59.59,70.029
		 M96.04,68.667c0.886-0.745,1.462-1.758,2.117-2.695c-0.109,0.927-0.525,1.775-0.947,2.595c-1.967,3.649-4.51,6.996-7.53,9.839
		c-2.168,1.938-4.679,3.757-7.64,4.139c-1.864,0.276-3.938-0.248-5.221-1.689c-1.341-1.571-1.418-4.084-0.163-5.728
		c1.055-1.431,2.732-2.252,4.421-2.677c2.146-0.529,4.375-0.498,6.569-0.547C90.67,71.675,93.762,70.747,96.04,68.667
		 M50.435,67.867c0.275,1.144,0.306,2.329,0.225,3.499c-0.32,3.692-1.099,7.36-2.423,10.824c-0.874,2.239-2.024,4.406-3.678,6.173
		c-1.146,1.186-2.613,2.136-4.265,2.396c-1.384,0.297-2.899-0.039-3.982-0.964c-1.463-1.257-2.002-3.469-1.297-5.261
		c0.467-1.334,1.428-2.429,2.469-3.354c1.714-1.452,3.81-2.311,5.788-3.325c2.596-1.452,5.012-3.479,6.254-6.245
		C50.108,70.442,50.276,69.145,50.435,67.867 M17.152,67.955c0.266,1.716,0.696,3.452,1.655,4.924
		c1.58,2.443,3.982,4.244,6.584,5.486c2.263,1.04,4.554,2.265,6.144,4.239c1.078,1.345,1.76,3.177,1.238,4.889
		c-0.524,2.111-2.734,3.644-4.903,3.345c-2.713-0.259-4.87-2.216-6.298-4.407c-2.203-3.386-3.348-7.343-4.064-11.285
		C17.153,72.776,16.724,70.338,17.152,67.955 M90.01,82.021c0.769-0.716,1.305-1.62,1.874-2.492c-0.263,1.368-0.938,2.606-1.628,3.8
		c-1.879,3.132-4.123,6.061-6.771,8.584c-2.18,1.924-4.627,3.849-7.609,4.221c-1.751,0.345-3.645-0.133-5.026-1.261
		c-1.216-1.118-1.672-2.909-1.297-4.501c0.381-1.261,1.215-2.369,2.334-3.067c2.451-1.592,5.521-1.721,8.352-1.726
		C83.747,85.53,87.454,84.547,90.01,82.021 M30.494,92.451c1.225,0.031,2.406,0.481,3.635,0.416c1.007-0.057,2.036-0.582,3.04-0.24
		c-0.247,4.223-0.687,8.432-1.014,12.648c-0.036,0.723-0.164,1.597-0.894,1.961c-1.115,0.434-2.436,0.206-3.389-0.503
		c-0.463-0.405-0.349-1.112-0.457-1.656c-0.371-4.121-0.886-8.23-1.172-12.359C30.328,92.628,30.412,92.539,30.494,92.451
		 M63.195,93.337c1.065,0.458,1.925,1.269,2.975,1.753c1.039,0.479,2.17,0.694,3.241,1.084c-0.358,1.014-0.943,1.924-1.48,2.847
		c-1.298,2.272-2.603,4.541-3.885,6.821c-0.611,1.015-1.099,2.139-1.996,2.945h-1.159c-0.926-0.376-1.85-0.964-2.26-1.914
		c-0.179-0.431,0.016-0.896,0.158-1.302c1.038-2.808,1.974-5.651,2.985-8.469C62.244,95.848,62.581,94.534,63.195,93.337
		L63.195,93.337z"/>
</g>
</svg>
