<?xml version="1.0" encoding="utf-8"?>
<!-- Generator: Adobe Illustrator 16.2.0, SVG Export Plug-In . SVG Version: 6.00 Build 0)  -->
<!DOCTYPE svg PUBLIC "-//W3C//DTD SVG 1.1//EN" "http://www.w3.org/Graphics/SVG/1.1/DTD/svg11.dtd">
<svg version="1.1" id="Layer_1" xmlns="http://www.w3.org/2000/svg" xmlns:xlink="http://www.w3.org/1999/xlink" x="0px" y="0px"
	 width="122.927px" height="125px" viewBox="0 0 122.927 125" enable-background="new 0 0 122.927 125" xml:space="preserve">
<g>
	<path fill="none" stroke="#8E9092" stroke-width="4.252" stroke-miterlimit="22.9256" d="M13.553,6.126h96.323
		c4.634,0,8.426,3.792,8.426,8.426v96.323c0,4.635-3.792,8.426-8.426,8.426H13.553c-4.635,0-8.427-3.791-8.427-8.426V14.552
		C5.126,9.918,8.918,6.126,13.553,6.126L13.553,6.126z"/>
</g>
<g>
	<path fill="#656665" d="M42.028,32.594h4.331c2.273,0.36,4.526,0.823,6.771,1.331c-0.235,1.167-0.474,2.332-0.704,3.5
		c-3.254-0.685-6.56-1.361-9.901-1.233c1.856,3.034,5.216,4.474,8.064,6.362c4.864,3.115,9.784,6.14,14.648,9.251
		c2.343,1.472,4.651,2.997,7.039,4.395c1.037-1.938,2.212-3.806,3.133-5.803c-1.437-0.549-2.979-0.885-4.331-1.636
		c-1.564-0.765-1.102-3.584,0.634-3.82c3.105-0.151,6.158,0.609,9.231,0.951c1.087,0.318,2.672,0.21,3.178,1.467
		c0.568,1.53-0.293,3.096-1.206,4.281c-0.971,1.375-2.75,0.148-4.053,0.078c-2.167,3.887-4.303,7.791-6.382,11.726
		c2.468,0.984,4.854,2.169,7.371,3.03c1.981-3.704,5.277-6.685,9.197-8.208c5.464-2.182,11.994-1.535,16.831,1.854
		c2.923,2.073,5.312,4.977,6.587,8.341c0.48,1.434,0.886,2.898,1.188,4.383v4.149c-0.682,3.694-2.11,7.345-4.761,10.082
		c-2.841,3.211-6.928,5.032-11.094,5.758h-4.303c-2.182-0.531-4.44-0.992-6.384-2.176c-2.642-1.431-4.97-3.491-6.535-6.07
		c-1.6-2.319-2.338-5.094-2.801-7.839c-2.708-0.035-5.416-0.036-8.121,0.057c-0.858,1.362-2.228,2.545-3.896,2.667
		c-1.08,0.079-2.126-0.343-3.137-0.661c-0.428,0.551-0.979,1.041-1.234,1.706c-0.179,1.051-0.179,2.126-0.221,3.191
		c-2.257,0-4.514-0.002-6.771-0.002c0.023-1.118,0.045-2.235,0.068-3.351c0.793-0.146,1.697,0.055,2.436-0.321
		c1.316-1.255,2.368-2.747,3.526-4.141c-3.928-2.154-7.706-4.718-10.682-8.102c-1.802-1.983-2.509-4.615-3.652-6.973
		c-1.777-3.895-3.47-7.83-5.327-11.686c-1.598,3.271-3.09,6.594-4.58,9.917c5.384,3.001,9.393,8.751,9.433,15.026
		c0.593,6.991-3.714,13.916-9.957,16.935c-1.775,0.973-3.79,1.338-5.733,1.822h-4.308c-2.756-0.567-5.536-1.376-7.867-3.007
		c-3.508-2.361-6.283-5.964-7.298-10.106c-0.256-0.906-0.501-1.816-0.682-2.741v-4.135c0.63-3.305,1.775-6.62,4.001-9.204
		c2.979-3.763,7.552-6.151,12.313-6.612c2.267-0.124,4.531,0.178,6.745,0.648c2.418-5.272,4.898-10.514,7.335-15.778
		c0.149-0.418,0.435-0.833,0.382-1.297c-0.512-1.967-2.026-3.779-1.635-5.904C39.3,33.356,40.84,32.911,42.028,32.594
		 M43.827,42.649c-0.382,0.914-1.388,1.887-0.721,2.894c1.075,2.162,1.905,4.451,3.099,6.551c1.354,0.911,2.94,1.381,4.421,2.04
		c6.186,2.61,12.353,5.268,18.558,7.833c0.43-0.88,0.864-1.758,1.315-2.627c-5.61-3.449-11.127-7.05-16.73-10.51
		C50.455,46.768,47.216,44.584,43.827,42.649 M48.414,57.154c0.816,1.944,1.735,3.845,2.549,5.793
		c0.627,1.517,1.719,2.77,2.858,3.925c2.292,2.165,4.944,3.891,7.648,5.491c0.669-0.602,1.31-1.293,2.164-1.622
		c0.438-0.255,1.136-0.282,1.361-0.831c0.878-1.548,1.7-3.133,2.444-4.751C61.057,62.587,54.777,59.766,48.414,57.154
		 M17.039,65.249c-1.477,1.702-2.61,3.714-3.218,5.889c-1.582,5.583,0.67,12.029,5.426,15.367c3.424,2.522,7.976,3.461,12.093,2.314
		c5.347-1.327,9.697-5.999,10.585-11.443c1.079-5.858-1.944-12.343-7.331-15.001c-2.632,5.7-5.235,11.415-7.909,17.096
		c-1.083-0.393-2.134-0.861-3.179-1.341c0.687-2.202,1.883-4.188,2.771-6.309c1.6-3.635,3.445-7.16,4.971-10.827
		C26.207,59.685,20.515,61.365,17.039,65.249 M89.121,62.15c-2.562,1.231-4.562,3.365-6.019,5.771
		c2.318,1.034,4.689,1.94,6.998,2.996c0.653,0.255,1.282,0.629,1.983,0.741c1.154-0.43,2.153-1.459,3.484-1.253
		c1.598-0.106,3.211,0.783,3.958,2.197c1.37,2.162,0.431,5.456-1.983,6.424c-2.255,1.215-5.111-0.08-6.223-2.254
		c-3.304-0.067-6.609-0.046-9.912-0.024c0.486,3.807,2.608,7.339,5.65,9.656c2.886,2.136,6.573,3.279,10.162,2.774
		c4.783-0.412,9.187-3.495,11.316-7.783c3.218-5.938,1.313-14.027-4.174-17.941C100.108,60.126,93.876,59.573,89.121,62.15
		 M70.833,66.643c-0.888,1.554-1.722,3.137-2.503,4.746c0.493,0.496,0.928,1.047,1.291,1.645c2.722,0.078,5.444,0.066,8.168,0.038
		c0.168-1.085,0.36-2.165,0.532-3.249C75.826,68.76,73.355,67.639,70.833,66.643 M81.813,71.284c-0.123,0.601-0.253,1.2-0.38,1.799
		c1.518-0.002,3.038-0.007,4.558-0.026C84.598,72.468,83.21,71.863,81.813,71.284L81.813,71.284z"/>
</g>
</svg>
