<?xml version="1.0" encoding="utf-8"?>
<!-- Generator: Adobe Illustrator 16.2.0, SVG Export Plug-In . SVG Version: 6.00 Build 0)  -->
<!DOCTYPE svg PUBLIC "-//W3C//DTD SVG 1.1//EN" "http://www.w3.org/Graphics/SVG/1.1/DTD/svg11.dtd">
<svg version="1.1" id="Layer_1" xmlns="http://www.w3.org/2000/svg" xmlns:xlink="http://www.w3.org/1999/xlink" x="0px" y="0px"
	 width="122.927px" height="125px" viewBox="0 0 122.927 125" enable-background="new 0 0 122.927 125" xml:space="preserve">
<g>
	<path fill="none" stroke="#8E9092" stroke-width="4.252" stroke-miterlimit="22.9256" d="M13.553,6.126h96.323
		c4.634,0,8.426,3.792,8.426,8.426v96.323c0,4.635-3.792,8.426-8.426,8.426H13.553c-4.635,0-8.427-3.791-8.427-8.426V14.552
		C5.126,9.918,8.918,6.126,13.553,6.126L13.553,6.126z"/>
</g>
<g>
	<path fill="#666766" d="M25.584,21.959c-0.318-1.856,1.592-3.726,3.642-3.35c21.392-0.11,42.785,0.025,64.176-0.068
		c1.785-0.348,3.948,0.483,4.152,2.342c0.309,3.647,0.092,7.308,0.107,10.963c-21.385,0.008-42.77,0.003-64.154,0
		c-2.609,0.011-5.222,0-7.828,0.155C25.563,28.657,25.428,25.307,25.584,21.959 M35.478,22.103
		c-2.836,0.404-3.643,4.266-1.293,5.726c1.943,1.695,5.705-0.025,5.46-2.466C40.051,23.284,37.519,21.513,35.478,22.103
		 M46.156,22.101c-1.382,0.158-2.533,1.263-2.738,2.522c-0.855,2.446,2.381,4.751,4.77,3.576c1.876-0.551,2.381-2.687,1.797-4.232
		C49.407,22.6,47.721,21.778,46.156,22.101 M27.2,36.756c1.962-0.452,3.996-0.361,5.998-0.412
		c19.353,0.048,38.709,0.028,58.062,0.008c1.745,0.099,3.911-0.22,5.279,1.062c1.32,1.184,0.993,3.077,1.134,4.596
		c0,21.472,0,42.942-0.006,64.414c-24.138,0.003-48.272,0.009-72.407-0.002c-0.009-22.131,0.006-44.262-0.015-66.395
		C25.205,38.714,26.006,37.445,27.2,36.756 M58.081,48.652c-5.869,0.641-11.458,3.446-15.088,7.783
		c-5.02,5.729-6.413,13.93-3.563,20.812c3.229,8.44,12.8,14.361,22.476,13.861c7.171-0.161,14.141-3.658,18.149-9.167
		c5.378-6.972,5.411-17.034,0.156-24.077C75.516,51.25,66.6,47.417,58.081,48.652 M42.37,64.027
		c1.559,0.797,3.067,1.828,4.913,1.938c1.656-0.067,3.199-0.715,4.623-1.449c1.362,0.587,2.726,1.269,4.241,1.44
		c1.753-0.051,3.363-0.782,4.857-1.567c1.494,0.782,3.104,1.517,4.858,1.57c1.644-0.195,3.102-0.961,4.574-1.607
		c1.5,0.811,3.125,1.554,4.897,1.61c1.681-0.2,3.159-0.997,4.666-1.652c1.081,4.644,0.81,9.715-1.904,13.848
		c-3.425,5.531-10.116,9.333-17.092,9.06c-8.971,0.342-17.379-6.187-19.063-14.255C41.17,70.002,41.401,66.921,42.37,64.027
		L42.37,64.027z"/>
</g>
</svg>
