<?xml version="1.0" encoding="utf-8"?>
<!-- Generator: Adobe Illustrator 16.2.0, SVG Export Plug-In . SVG Version: 6.00 Build 0)  -->
<!DOCTYPE svg PUBLIC "-//W3C//DTD SVG 1.1//EN" "http://www.w3.org/Graphics/SVG/1.1/DTD/svg11.dtd">
<svg version="1.1" id="Layer_1" xmlns="http://www.w3.org/2000/svg" xmlns:xlink="http://www.w3.org/1999/xlink" x="0px" y="0px"
	 width="122.927px" height="125px" viewBox="0 0 122.927 125" enable-background="new 0 0 122.927 125" xml:space="preserve">
<g>
	<path fill="none" stroke="#8E9092" stroke-width="4.252" stroke-miterlimit="22.9256" d="M13.553,6.126h96.323
		c4.634,0,8.426,3.792,8.426,8.426v96.323c0,4.635-3.792,8.426-8.426,8.426H13.553c-4.635,0-8.427-3.791-8.427-8.426V14.552
		C5.126,9.918,8.918,6.126,13.553,6.126L13.553,6.126z"/>
</g>
<g>
	<path fill="#666766" d="M20.83,26.391c1.903-0.585,3.906-0.556,5.875-0.566c9.232,0.021,18.467,0.022,27.701-0.001
		c2.259-0.049,4.689,0.218,6.564,1.591c1.346,0.983,2.473,2.351,2.941,3.97c0.696,2.758,0.845,5.756-0.173,8.457
		c-0.486,1.357-1.687,2.244-2.449,3.419c-0.331,3.585-0.053,7.199-0.132,10.796c3.211,0.003,6.426,0.034,9.64-0.054
		c0.171-4.359-0.099-8.726,0.128-13.081c0.152-2.298,1.788-4.377,3.894-5.234c1.243-0.604,2.659-0.447,3.994-0.511
		c2.884,0.01,5.771-0.059,8.655,0.057c2.464-0.012,4.886,1.6,5.737,3.927c0.625,1.347,0.566,2.888,0.655,4.333
		c0.022,3.499,0.081,7.003-0.058,10.5c2.435,0.147,4.98-0.267,7.321,0.596c3.149,1.109,5.217,4.475,5.042,7.773
		c0.047,3.753-0.031,7.505,0.007,11.258c-0.013,2.655,0.138,5.336-0.326,7.964c-0.03,0.872,0.448,1.671,0.52,2.534
		c0.284,2.607,0.166,5.24,0.147,7.858c0.04,3.146-1.904,6.257-4.877,7.389c-0.777,0.226-1.337,0.809-1.557,1.595
		c-2.084,5.225-7.519,8.841-13.128,8.85c-4.322,0.196-8.536-1.921-11.334-5.155c-1.96,2.043-4.333,3.764-7.07,4.579
		c-3.39,0.999-7.162,0.771-10.339-0.813c-2.22-0.993-4.023-2.683-5.561-4.532c-1.482,1.545-3.089,3.006-5,4.003
		c-3.799,2.11-8.437,2.699-12.633,1.557c-3.768-1.165-7.334-3.405-9.53-6.74c-0.972-1.333-1.387-3.17-2.912-4.02
		c-2.559-1.487-3.849-4.517-3.67-7.406c0.088-2.884-0.369-5.879,0.514-8.679c0.401-1.338,0.178-2.765,0.218-4.136
		c-0.085-11.521,0.024-23.043-0.056-34.564c-0.992-0.791-2.076-1.553-2.739-2.664c-1.581-2.335-1.532-5.337-1.288-8.031
		C15.799,30.169,17.938,27.379,20.83,26.391 M23.309,31.293c-1.122,0.146-1.785,1.451-1.646,2.503
		c0.021,0.97-0.097,1.997,0.21,2.935c0.438,0.928,1.601,1.33,2.572,1.231c10.104-0.007,20.207-0.002,30.311-0.003
		c0.957-0.071,2.198,0.107,2.898-0.732c0.786-0.95,0.569-2.302,0.576-3.431c0.148-1.193-0.706-2.458-1.94-2.54
		c-4.664-0.154-9.337,0.003-14.004-0.05C35.961,31.278,29.63,31.063,23.309,31.293 M25.925,41.021
		c-0.338,2.252-0.277,4.534-0.271,6.804c0.055,10.387-0.046,20.777,0.039,31.163c-0.047,0.69,0.127,1.809,1.006,1.892
		c2.117,0.068,4.276,0.181,6.366-0.223c2.105-0.853,4.3-1.727,6.625-1.503c2.337-0.135,4.463,0.921,6.622,1.625
		c2.605,0.232,5.242,0.199,7.854,0.021c0.905-0.118,0.76-1.366,0.776-1.98c-0.032-10.101-0.017-20.202-0.015-30.302
		c-0.02-2.285,0.105-4.577-0.092-6.859c-0.069-0.758-1.089-0.805-1.637-0.755c-3.464-0.059-6.93,0.024-10.394-0.003
		C37.178,40.958,31.548,40.763,25.925,41.021 M77.105,41.3c-0.425,5.395-0.098,10.813-0.196,16.218
		c3.577,0.004,7.155,0.006,10.734,0c0.014-5.358-0.031-10.714,0.031-16.071C84.174,40.976,80.623,41.328,77.105,41.3 M59.322,60.21
		c-0.965,0.101-1.854,0.979-1.813,1.974c0,5.199,0.007,10.397,0.007,15.597c0.093,0.746-0.094,1.606,0.308,2.29
		c0.606,0.779,1.718,0.9,2.635,0.844c12.121-0.051,24.243-0.011,36.365-0.02c0.865-0.095,2.025,0.156,2.652-0.637
		c0.905-1.011,0.552-2.466,0.652-3.693c-0.047-4.331,0.009-8.661-0.02-12.99c-0.079-0.934,0.103-2.09-0.642-2.817
		c-0.776-0.782-2.005-0.592-2.992-0.65c-10.389,0.012-20.776,0.019-31.165,0.003C63.314,60.116,61.313,60.031,59.322,60.21
		 M38.544,82.516c-1.162,0.148-2.31,0.45-3.373,0.945c-4.07,1.764-6.76,6.345-6.085,10.77c0.462,4.539,4.301,8.426,8.788,9.103
		c3.737,0.558,7.709-1.031,9.916-4.115c2.2-2.783,2.777-6.708,1.4-9.992C47.696,84.934,43.018,82.122,38.544,82.516 M25.367,84.397
		c-0.688,0.991-0.289,2.297-0.437,3.417c0.105,1.806-0.265,3.79,0.604,5.461c0.179-1.912,0.4-3.853,1.16-5.632
		c0.565-1.567,1.634-2.872,2.619-4.187C28.024,83.672,26.209,83.045,25.367,84.397 M49.551,83.493
		c2.301,2.433,3.56,5.712,3.766,9.035c0.961-2.922,2.773-5.715,5.585-7.138c3.647-2.086,8.466-1.837,11.898,0.575
		c2.505,1.64,4.15,4.355,4.789,7.252c0.704-3.784,3.464-7.115,7.062-8.486c3.954-1.598,8.739-0.584,11.858,2.278
		c1.91,1.857,3.143,4.347,3.57,6.968c1.087-0.063,2.124-0.724,2.316-1.855c0.159-2.065,0.11-4.143,0.033-6.21
		c-0.016-0.623-0.042-1.385-0.606-1.79c-0.659-0.776-1.766-0.562-2.652-0.639C81.297,83.493,65.423,83.481,49.551,83.493
		 M63.482,87.391c-2.961,0.339-5.601,2.521-6.633,5.297c-1.068,3.066-0.036,6.691,2.516,8.696c2.397,2.105,6.152,2.459,8.89,0.813
		c2.72-1.495,4.458-4.691,4.006-7.799C71.887,90.205,67.684,86.732,63.482,87.391 M85.808,87.378
		c-3.954,0.44-7.274,4.212-6.979,8.224c0.054,4.212,4.062,7.962,8.289,7.607c4.548-0.083,8.473-4.825,7.428-9.314
		C93.921,89.896,89.819,86.806,85.808,87.378 M31.104,45.328c5.162-0.254,10.341-0.022,15.51-0.114
		c1.33,0.137,3.006-0.292,4.032,0.826c0.909,0.703,0.76,1.987,0.815,2.991c0,4.908,0.024,9.818-0.01,14.727
		c0.105,1.059-0.357,2.124-1.159,2.81c-0.749,0.561-1.768,0.39-2.636,0.476c-5.197-0.003-10.396,0.026-15.592-0.012
		c-1.651,0.239-3.311-1.236-3.078-2.933c-0.051-5.473-0.101-10.952,0.027-16.423C29.059,46.533,29.942,45.455,31.104,45.328
		 M35.187,51.462c-0.002,3.114-0.003,6.23,0,9.346c3.347,0.003,6.693,0.005,10.041,0c0-3.116,0.004-6.231,0-9.346
		C41.88,51.458,38.533,51.457,35.187,51.462 M39.232,86.847c2.831-0.164,5.713,1.925,6.154,4.776
		c0.691,2.478-0.554,5.309-2.763,6.568c-2.486,1.598-6.17,0.987-7.957-1.381c-1.777-2.177-1.739-5.577,0.058-7.73
		C35.779,87.678,37.517,86.965,39.232,86.847 M63.304,90.496c2.35-0.583,4.986,0.859,5.686,3.181
		c1.138,2.81-1.138,6.423-4.202,6.428c-2.51,0.35-5.148-1.77-5.185-4.33C59.24,93.381,60.985,91.021,63.304,90.496 M85.814,90.503
		c2.052-0.495,4.225,0.618,5.222,2.424c0.94,1.844,0.752,4.33-0.817,5.773c-1.636,1.79-4.731,1.958-6.542,0.352
		c-1.954-1.364-2.236-4.297-1.118-6.275C83.315,91.675,84.465,90.718,85.814,90.503L85.814,90.503z"/>
</g>
</svg>
