<?xml version="1.0" encoding="utf-8"?>
<!-- Generator: Adobe Illustrator 16.2.0, SVG Export Plug-In . SVG Version: 6.00 Build 0)  -->
<!DOCTYPE svg PUBLIC "-//W3C//DTD SVG 1.1//EN" "http://www.w3.org/Graphics/SVG/1.1/DTD/svg11.dtd">
<svg version="1.1" id="Layer_1" xmlns="http://www.w3.org/2000/svg" xmlns:xlink="http://www.w3.org/1999/xlink" x="0px" y="0px"
	 width="122.927px" height="125px" viewBox="0 0 122.927 125" enable-background="new 0 0 122.927 125" xml:space="preserve">
<g>
	<path fill="none" stroke="#8E9092" stroke-width="4.252" stroke-miterlimit="22.9256" d="M13.553,6.126h96.323
		c4.634,0,8.426,3.792,8.426,8.426v96.323c0,4.635-3.792,8.426-8.426,8.426H13.553c-4.635,0-8.427-3.791-8.427-8.426V14.552
		C5.126,9.918,8.918,6.126,13.553,6.126L13.553,6.126z"/>
</g>
<g>
	<path fill="#666766" d="M59.217,16.185c3.858,4.687,5.553,10.846,5.526,16.848c0.126,2.826-0.12,5.699,0.449,8.496
		c1.964-4.108,1.987-8.775,3.01-13.13c1.551-3.032,3.432-5.898,5.39-8.685c2.706,7.866,2.59,16.718-0.507,24.458
		c4.418,1.504,9.754,3.093,11.635,7.843c0.669,1.409,0.796,3.063,1.685,4.365c2.66,2.307,5.938,3.748,8.672,5.965
		c2.347,1.731,4.401,3.802,6.515,5.796c1.958,1.834,5.21,2.471,6.152,5.22c0.379,3.05-3.029,4.021-4.508,6.099
		c-3.622,4.348-7.373,8.868-12.523,11.455c-2.776,0.966-5.763,0.326-8.353-0.853c-7.051-2.84-14.454-5.592-22.188-5.023
		c-4.523,1.132-7.853,5.17-9.067,9.551c-1.046,4.987-0.406,10.134-0.912,15.181c-10.061-7.051-20.687-14.302-27.055-25.107
		c-2.154-3.392-2.913-7.583-5.756-10.542c-0.898-1.063-1.867-2.058-2.816-3.07c7.986-8.436,16.055-16.907,25.386-23.888
		c1.682-1.358,3.585-2.533,4.844-4.331c0.612-1.804,0.855-3.735,1.725-5.449c1.874-4.008,5.593-6.738,7.597-10.676
		C56.218,23.396,57.482,19.677,59.217,16.185 M76.558,55.8c-1.042,0.183-2.134,0.726-2.57,1.751c-1.028,1.94,0.396,5.02,2.773,4.813
		c1.744,0.279,3.242-1.162,3.611-2.74C80.941,57.414,78.608,55.526,76.558,55.8L76.558,55.8z"/>
</g>
</svg>
