<?xml version="1.0" encoding="utf-8"?>
<!-- Generator: Adobe Illustrator 16.2.0, SVG Export Plug-In . SVG Version: 6.00 Build 0)  -->
<!DOCTYPE svg PUBLIC "-//W3C//DTD SVG 1.1//EN" "http://www.w3.org/Graphics/SVG/1.1/DTD/svg11.dtd">
<svg version="1.1" id="Layer_1" xmlns="http://www.w3.org/2000/svg" xmlns:xlink="http://www.w3.org/1999/xlink" x="0px" y="0px"
	 width="122.927px" height="125px" viewBox="0 0 122.927 125" enable-background="new 0 0 122.927 125" xml:space="preserve">
<g>
	<path fill="none" stroke="#8E9092" stroke-width="4.252" stroke-miterlimit="22.9256" d="M13.553,6.126h96.323
		c4.634,0,8.426,3.792,8.426,8.426v96.323c0,4.635-3.792,8.426-8.426,8.426H13.553c-4.635,0-8.427-3.791-8.427-8.426V14.552
		C5.126,9.918,8.918,6.126,13.553,6.126L13.553,6.126z"/>
</g>
<g>
	<path fill="#676867" d="M53.803,19.247c2.777-1.091,5.791-2.922,8.779-1.19c15.223,5.44,30.404,11.007,45.632,16.434V82.52
		c-12.321,8.316-24.755,16.468-37.035,24.846c-2.277,1.6-5.075,0.095-7.225-0.967c-14.049-6.903-28.119-13.765-42.144-20.713
		c-2.203-1.115-4.53-2.021-6.597-3.397V34.503C28.072,29.411,40.969,24.401,53.803,19.247 M58.048,25.513
		c-3.025,1.216-6.122,2.303-9.027,3.791c1.992,1.269,4.262,1.984,6.443,2.844c10.049,3.877,20.093,7.767,30.12,11.702
		c1.235,0.446,2.625,1.004,3.901,0.38c3.27-1.38,6.316-3.24,9.354-5.063c-11.677-4.596-23.585-8.577-35.332-13
		C61.775,25.563,59.857,24.649,58.048,25.513 M41.531,32.159c-4.436,1.662-8.854,3.377-13.228,5.191
		c12.802,5.25,25.738,10.152,38.602,15.244c1.918,0.74,4.241,1.583,6.163,0.405c3.538-1.761,6.956-3.757,10.482-5.539
		c-11.776-5.104-23.908-9.337-35.799-14.169C45.792,32.667,43.647,31.237,41.531,32.159 M22.691,39.62
		c-0.079,12.722-0.021,25.449-0.037,38.171c15.248,7.544,30.446,15.207,45.851,22.428c0.037-14.302,0.079-28.603-0.029-42.904
		C53.199,51.462,38.025,45.32,22.691,39.62 M86.134,54.9c-1.335,0.922-2.488,2.84-1.468,4.386c3.001-0.43,5.233-2.835,7.701-4.377
		c1.657-1.009,2.31-2.852,2.078-4.696C91.457,51.346,88.791,53.161,86.134,54.9L86.134,54.9z"/>
</g>
</svg>
