<?xml version="1.0" encoding="utf-8"?>
<!-- Generator: Adobe Illustrator 16.2.0, SVG Export Plug-In . SVG Version: 6.00 Build 0)  -->
<!DOCTYPE svg PUBLIC "-//W3C//DTD SVG 1.1//EN" "http://www.w3.org/Graphics/SVG/1.1/DTD/svg11.dtd">
<svg version="1.1" id="Layer_1" xmlns="http://www.w3.org/2000/svg" xmlns:xlink="http://www.w3.org/1999/xlink" x="0px" y="0px"
	 width="122.927px" height="125px" viewBox="0 0 122.927 125" enable-background="new 0 0 122.927 125" xml:space="preserve">
<g>
	<path fill="none" stroke="#8E9092" stroke-width="4.252" stroke-miterlimit="22.9256" d="M13.553,6.126h96.323
		c4.634,0,8.426,3.792,8.426,8.426v96.323c0,4.635-3.792,8.426-8.426,8.426H13.553c-4.635,0-8.427-3.791-8.427-8.426V14.552
		C5.126,9.918,8.918,6.126,13.553,6.126L13.553,6.126z"/>
</g>
<g>
	<path fill="#656665" d="M71.313,24.349c7.636-1.616,15.823,3.704,17.502,11.281c1.445,5.458-0.467,11.645-4.789,15.303
		c-2.572,2.554-6.294,3.151-9.683,3.915c-0.364-1.252-0.741-2.496-1.096-3.749c2.985-0.907,6.218-1.445,8.547-3.73
		c3.744-3.578,4.476-10.01,1.396-14.239c-2.716-4.39-8.74-5.988-13.431-4.094c-2.335,1.01-4.005,2.985-5.639,4.848
		c-0.996-0.938-1.988-1.885-2.985-2.819C63.722,27.904,67.044,24.735,71.313,24.349 M53.747,36.379
		c1.796-1.337,3.398-3.654,5.988-3.16c2.325,1.544,4.341,3.497,6.429,5.342c-5.755,3.084-10.28,8.767-10.976,15.37
		c-0.894,4.448,0.763,8.758,2.388,12.798c-1.023,0.067-2.051,0.067-3.07-0.005c-2.446,2.591-4.875,5.194-7.438,7.672
		c-0.624-0.619-1.248-1.239-1.877-1.85c-0.453,0.539-1.364,1.616-1.822,2.154c0.619,0.643,1.234,1.289,1.85,1.939
		c-0.979,1.028-1.962,2.052-2.932,3.089c-0.808-0.439-1.606-0.88-2.415-1.315c-0.498,0.507-0.996,1.01-1.499,1.513
		c0.624,0.705,1.257,1.4,1.881,2.105c-0.525,0.597-1.051,1.189-1.571,1.791c-0.745-0.665-1.485-1.329-2.231-1.988
		c-0.587,0.749-1.166,1.503-1.732,2.262c0.655,0.472,1.311,0.943,1.967,1.424c-0.359,0.601-0.714,1.207-1.068,1.813
		c-2.972,0.107-5.943,0.26-8.92,0.395c0.377-2.088-0.66-4.735,1.077-6.401c6.011-6.967,12.609-13.417,18.651-20.353
		c0.696-1.881,1.037-3.928,1.549-5.876c-0.646-3.291-2.352-6.262-3.138-9.512c-0.292-0.799,0.472-1.414,0.88-1.975
		C48.109,40.904,51.104,38.821,53.747,36.379 M58.321,52.229c1.76-7.375,9.157-13.162,16.838-12.407
		c2.622-0.018,5.104,0.938,7.537,1.809c-1.352,1.634-2.218,4.305-4.588,4.543c-2.514,0.099-5.786,0.709-6.535,3.56
		c-1.635,3.515,1.238,8.628,5.373,8.049c2.28,0.368,3.717-1.544,5.396-2.645c2.685-1.854,5.095-4.058,7.313-6.445
		c2.271,5.696,2.505,12.618-1.5,17.609c-3.285,4.983-9.381,6.863-15.051,7.106c-2.365,1.737-4.565,3.757-6.293,6.154
		c-1.401,2.101-3.856,2.967-5.696,4.588c0.704,1.014,1.409,2.028,2.104,3.047c-1.553,0.979-3.313,1.549-5.01,2.228
		c0.238,1.494,0.75,2.922,1.284,4.331c-1.108,0.337-2.227,0.655-3.349,0.952c0.301,1.181,1.162,2.505,0.418,3.681
		c-1.158,2.397-4.297,2.002-6.51,2.662c-0.637-1.863-1.867-3.677-1.84-5.684c3.313-6.675,7.182-13.085,10.786-19.616
		c0.638-1.463,1.796-2.877,1.625-4.561c-0.157-1.481,0.229-2.936,0.53-4.376C58.681,62.469,56.674,57.226,58.321,52.229
		L58.321,52.229z"/>
</g>
</svg>
