<?xml version="1.0" encoding="utf-8"?>
<!-- Generator: Adobe Illustrator 16.2.0, SVG Export Plug-In . SVG Version: 6.00 Build 0)  -->
<!DOCTYPE svg PUBLIC "-//W3C//DTD SVG 1.1//EN" "http://www.w3.org/Graphics/SVG/1.1/DTD/svg11.dtd">
<svg version="1.1" id="Layer_1" xmlns="http://www.w3.org/2000/svg" xmlns:xlink="http://www.w3.org/1999/xlink" x="0px" y="0px"
	 width="122.927px" height="125px" viewBox="0 0 122.927 125" enable-background="new 0 0 122.927 125" xml:space="preserve">
<g>
	<path fill="none" stroke="#8E9092" stroke-width="4.252" stroke-miterlimit="22.9256" d="M13.553,6.126h96.323
		c4.634,0,8.426,3.792,8.426,8.426v96.323c0,4.635-3.792,8.426-8.426,8.426H13.553c-4.635,0-8.427-3.791-8.427-8.426V14.552
		C5.126,9.918,8.918,6.126,13.553,6.126L13.553,6.126z"/>
</g>
<g>
	<path fill="#666766" d="M59.588,15.927c2.364-0.336,4.693,0.638,6.522,2.075c1.367-1.018,2.909-1.917,4.648-2.05
		c4.109-0.634,8.404,2.334,9.269,6.396c0.527,1.934,0.292,4.052-0.641,5.823c-0.745,1.548-2.097,2.668-3.278,3.87
		c-3.338,3.339-6.687,6.668-10.01,10.022c-3.809-3.762-7.571-7.572-11.371-11.342c-1.345-1.307-2.414-2.969-2.665-4.86
		c-0.113-1.359-0.256-2.786,0.266-4.087C53.309,18.626,56.287,16.184,59.588,15.927 M38.81,29.3c3.911-0.66,8.08,1.369,9.978,4.84
		c2.131,3.552,1.612,8.427-1.207,11.462c-3.029,3.493-8.661,4.295-12.524,1.747c-3.834-2.283-5.651-7.421-4.056-11.595
		C32.151,32.385,35.268,29.769,38.81,29.3 M84.205,39.091c3.293-0.531,6.831,1.03,8.545,3.906c1.428,2.072,1.629,4.81,0.983,7.193
		c-1.053,3.522-4.567,6.157-8.263,6.04c-2.556,0.086-5.069-1.173-6.683-3.121c-2.198-2.639-2.572-6.631-0.905-9.628
		C79.146,41.143,81.557,39.425,84.205,39.091 M35.174,50.129c3.456-1.293,7.436-1.325,10.837,0.162c2.388,1,4.375,2.724,6.21,4.512
		c4.844,4.845,9.68,9.698,14.536,14.53c2.588-2.721,5.344-5.28,7.955-7.981c1.744-1.875,3.858-3.526,6.354-4.239
		c2.826-0.903,5.951-0.755,8.693,0.373c2.536,1.002,4.454,3.029,6.333,4.929c4.102,4.105,8.202,8.211,12.315,12.306
		c0.96,0.877,1.245,2.388,0.7,3.563c-0.547,1.119-1.703,2.075-2.99,2.045c-1.281,0.153-2.326-0.779-3.151-1.625
		c-1.727-1.825-3.452-3.659-5.299-5.365c0.008,0.809-0.053,1.636,0.159,2.429c1.167,5.433,2.392,10.854,3.573,16.284
		c0.268,1.436,0.781,2.837,0.823,4.308c-2.626,0.174-5.257,0.096-7.884,0.104c-0.04,3.309,0.064,6.62-0.027,9.929
		c-0.11,1.698-1.502,3.349-3.287,3.302c-2.066,0.331-4.11-1.372-4.179-3.451c-0.149-3.258-0.004-6.521-0.054-9.779
		c-1.588,0-3.175,0.001-4.762,0.001c-0.021,3.089,0.026,6.179-0.003,9.269c-0.033,1.105-0.399,2.245-1.18,3.051
		c-1.487,1.413-4.188,1.233-5.479-0.367c-0.53-0.585-0.897-1.354-0.859-2.158c-0.086-3.265,0.008-6.531-0.026-9.796
		c-2.354-0.021-4.721,0.137-7.061-0.182c1.032-5.25,2.276-10.457,3.357-15.698c0.475-2.38,1.201-4.732,1.201-7.18
		c-1.932,1.786-3.689,3.753-5.62,5.537c-1.349,1.231-3.627,0.748-4.575-0.744c-0.871-0.966-0.707-2.367-0.427-3.54
		c-2.16-2.124-4.28-4.286-6.438-6.413c0.108,2.694-0.057,5.491-1.226,7.967c-0.482,1.166-1.241,2.179-1.868,3.264
		c-0.203,1.508-0.097,3.034-0.113,4.551c0.007,7.06,0.013,14.12,0.003,21.18c0.011,2.002-1.487,3.904-3.433,4.367
		c-1.784,0.466-3.904-0.079-4.999-1.625c-0.989-1.147-0.946-2.782-0.972-4.201c0.016-6.334,0.005-12.669,0.012-19.004
		c-1.59,0.063-3.201,0.192-4.773-0.123c0.009,6.817,0.007,13.636,0.012,20.455c0.167,2.224-1.619,4.412-3.858,4.598
		c-1.897,0.35-4.029-0.595-4.877-2.355c-0.598-1.08-0.487-2.384-0.544-3.57c0.021-7.941-0.005-15.884,0.021-23.826
		c-0.057-0.625,0.086-1.312-0.239-1.881c-0.778-1.386-1.495-2.826-1.839-4.391c-0.41-1.768-0.302-3.597-0.343-5.396
		c-2.003,1.967-3.977,3.964-5.953,5.957c-0.508,0.541-1.145,0.999-1.883,1.148c-2.475,0.689-5.111-1.773-4.673-4.28
		c0.119-1.062,0.863-1.908,1.579-2.641c4.638-4.628,9.276-9.253,13.896-13.898C30.625,52.654,32.787,51.126,35.174,50.129
		L35.174,50.129z"/>
</g>
</svg>
